<?xml version="1.0" encoding="utf-8"?>
<!-- Generator: Adobe Illustrator 27.5.0, SVG Export Plug-In . SVG Version: 6.00 Build 0)  -->
<svg version="1.1" xmlns="http://www.w3.org/2000/svg" xmlns:xlink="http://www.w3.org/1999/xlink" x="0px" y="0px"
	 viewBox="0 0 2000 2000" style="enable-background:new 0 0 2000 2000;" xml:space="preserve">
<g id="BACKGROUND">
	<rect style="fill:#FFFFFF;" width="2000" height="2000"/>
</g>
<g id="OBJECTS">
	<g>
		<g>
			<g>
				<path style="fill:#FFFFFF;" d="M2000,0H0v109.046c25.524-12.204,53.439-23.238,103.918-23.238
					c112.941,0,112.941,55.232,225.881,55.232c112.94,0,112.94-55.232,225.879-55.232c112.941,0,112.941,55.232,225.882,55.232
					c112.942,0,112.942-55.232,225.883-55.232s112.941,55.232,225.883,55.232c112.941,0,112.941-55.232,225.881-55.232
					c112.94,0,112.94,55.232,225.881,55.232c112.941,0,112.941-55.232,225.881-55.232c40.925,0,67.018,7.254,89.031,16.503V0z"/>
			</g>
			<g>
				<g>
					<path style="fill:#9FD4FF;" d="M742.777,0c11.356,1.622,24.11,2.561,38.782,2.561c14.673,0,27.427-0.939,38.783-2.561H742.777z
						"/>
					<path style="fill:#9FD4FF;" d="M1194.543,0c11.356,1.622,24.11,2.561,38.783,2.561c14.673,0,27.427-0.939,38.782-2.561
						H1194.543z"/>
					<path style="fill:#9FD4FF;" d="M291.017,0c11.356,1.622,24.109,2.561,38.783,2.561S357.226,1.622,368.581,0H291.017z"/>
					<path style="fill:#9FD4FF;" d="M1646.305,0c11.356,1.622,24.109,2.561,38.783,2.561S1712.514,1.622,1723.87,0H1646.305z"/>
				</g>
				<g>
					<path style="fill:#9FD4FF;" d="M879.602,0c-24.034,11.065-51.414,20.494-98.073,20.494c-46.66,0-74.039-9.429-98.074-20.494
						H667.7c28.545,13.956,56.777,28.065,113.859,28.065c57.083,0,85.315-14.109,113.86-28.065H879.602z"/>
					<path style="fill:#9FD4FF;" d="M427.837,0c-24.034,11.065-51.413,20.494-98.073,20.494S255.725,11.065,231.691,0H215.94
						c28.544,13.956,56.777,28.065,113.859,28.065c57.082,0,85.314-14.109,113.858-28.065H427.837z"/>
					<path style="fill:#9FD4FF;" d="M1331.365,0c-24.034,11.065-51.413,20.494-98.072,20.494c-46.66,0-74.039-9.429-98.073-20.494
						h-15.754c28.545,13.956,56.777,28.065,113.86,28.065c57.082,0,85.315-14.109,113.859-28.065H1331.365z"/>
					<path style="fill:#9FD4FF;" d="M1783.128,0c-24.034,11.065-51.414,20.494-98.074,20.494c-46.66,0-74.039-9.429-98.073-20.494
						h-15.751c28.544,13.956,56.777,28.065,113.859,28.065c57.083,0,85.315-14.109,113.859-28.065H1783.128z"/>
				</g>
				<g>
					<path style="fill:#9FD4FF;" d="M941.031,0c-53.435,15.467-74.439,46.795-159.502,46.795
						c-85.063,0-106.067-31.327-159.502-46.795H587.38c82.436,9.196,92.94,53.569,194.18,53.569
						C882.8,53.569,893.304,9.196,975.741,0H941.031z"/>
					<path style="fill:#9FD4FF;" d="M1392.792,0c-53.434,15.467-74.438,46.795-159.5,46.795
						c-85.063,0-106.066-31.327-159.501-46.795h-34.647c82.436,9.196,92.94,53.569,194.181,53.569
						c101.24,0,111.744-44.373,194.179-53.569H1392.792z"/>
					<path style="fill:#9FD4FF;" d="M37.508,0C23.324,4.106,11.418,9.326,0,14.785v6.79C19.605,12.201,40.634,3.523,72.203,0H37.508
						z"/>
					<path style="fill:#9FD4FF;" d="M489.266,0c-53.435,15.467-74.438,46.795-159.501,46.795
						c-85.063,0-106.066-31.327-159.501-46.795H135.62c82.436,9.196,92.939,53.569,194.179,53.569
						C431.038,53.569,441.542,9.196,523.977,0H489.266z"/>
					<path style="fill:#9FD4FF;" d="M2000,8.085c-7.03-2.955-14.471-5.708-22.682-8.085h-34.647
						c23.803,2.655,41.604,8.246,57.329,14.852V8.085z"/>
					<path style="fill:#9FD4FF;" d="M1844.557,0c-53.436,15.467-74.44,46.795-159.504,46.795
						c-85.063,0-106.066-31.327-159.501-46.795h-34.643c82.436,9.196,92.94,53.569,194.179,53.569
						c101.24,0,111.744-44.373,194.18-53.569H1844.557z"/>
				</g>
				<g>
					<path style="fill:#9FD4FF;" d="M2000,34.379c-22.02-9.255-48.117-16.516-89.062-16.516
						c-112.942,0-112.942,55.232-225.885,55.232c-112.941,0-112.941-55.232-225.882-55.232
						c-112.939,0-112.939,55.232-225.879,55.232c-112.941,0-112.941-55.232-225.881-55.232
						c-112.942,0-112.942,55.232-225.883,55.232c-112.942,0-112.942-55.232-225.883-55.232
						c-112.941,0-112.941,55.232-225.881,55.232c-112.941,0-112.941-55.232-225.881-55.232C53.427,17.863,25.514,28.888,0,41.086
						v5.993c25.524-12.204,53.439-23.238,103.918-23.238c112.941,0,112.941,55.232,225.881,55.232
						c112.94,0,112.94-55.232,225.879-55.232c112.941,0,112.941,55.232,225.882,55.232c112.942,0,112.942-55.232,225.883-55.232
						s112.941,55.232,225.883,55.232c112.941,0,112.941-55.232,225.881-55.232c112.94,0,112.941,55.232,225.881,55.232
						c112.941,0,112.941-55.232,225.881-55.232c40.925,0,67.018,7.254,89.031,16.503V34.379z"/>
				</g>
				<g>
					<path style="fill:#9FD4FF;" d="M2000,60.681c-22.02-9.255-48.117-16.516-89.062-16.516
						c-112.942,0-112.942,55.232-225.885,55.232c-112.941,0-112.941-55.232-225.882-55.232
						c-112.939,0-112.939,55.232-225.879,55.232c-112.941,0-112.941-55.232-225.881-55.232
						c-112.942,0-112.942,55.232-225.883,55.232c-112.942,0-112.942-55.232-225.883-55.232
						c-112.941,0-112.941,55.232-225.881,55.232c-112.941,0-112.941-55.232-225.881-55.232C53.427,44.165,25.514,55.189,0,67.387
						v5.196c25.524-12.204,53.439-23.238,103.918-23.238c112.941,0,112.941,55.232,225.881,55.232
						c112.94,0,112.94-55.232,225.879-55.232c112.941,0,112.941,55.232,225.882,55.232c112.942,0,112.942-55.232,225.883-55.232
						s112.941,55.232,225.883,55.232c112.941,0,112.941-55.232,225.881-55.232c112.94,0,112.941,55.232,225.881,55.232
						c112.941,0,112.941-55.232,225.881-55.232c40.925,0,67.018,7.254,89.031,16.503V60.681z"/>
				</g>
				<g>
					<path style="fill:#9FD4FF;" d="M2000,86.982c-22.02-9.255-48.117-16.516-89.062-16.516
						c-112.942,0-112.942,55.232-225.885,55.232c-112.941,0-112.941-55.232-225.882-55.232
						c-112.939,0-112.939,55.232-225.879,55.232c-112.941,0-112.941-55.232-225.881-55.232
						c-112.942,0-112.942,55.232-225.883,55.232c-112.942,0-112.942-55.232-225.883-55.232
						c-112.941,0-112.941,55.232-225.881,55.232c-112.941,0-112.941-55.232-225.881-55.232C53.427,70.466,25.514,81.49,0,93.688
						v4.399c25.524-12.204,53.439-23.238,103.918-23.238c112.941,0,112.941,55.232,225.881,55.232
						c112.94,0,112.94-55.232,225.879-55.232c112.941,0,112.941,55.232,225.882,55.232c112.942,0,112.942-55.232,225.883-55.232
						s112.941,55.232,225.883,55.232c112.941,0,112.941-55.232,225.881-55.232c112.94,0,112.941,55.232,225.881,55.232
						c112.941,0,112.941-55.232,225.881-55.232c40.925,0,67.018,7.254,89.031,16.503V86.982z"/>
				</g>
			</g>
		</g>
		<g>
			<g>
				<path style="fill:#FFFFFF;" d="M2000,56.211c-28.579,13.972-56.811,28.115-113.962,28.115
					c-112.941,0-112.941-55.232-225.882-55.232c-112.939,0-112.939,55.232-225.879,55.232c-112.941,0-112.941-55.232-225.882-55.232
					c-112.942,0-112.942,55.232-225.883,55.232S869.571,29.094,756.63,29.094c-112.941,0-112.941,55.232-225.881,55.232
					s-112.94-55.232-225.881-55.232S191.927,84.326,78.986,84.326c-34.889,0-58.994-5.273-78.986-12.558v317.794
					c19.998,7.291,44.111,12.569,79.018,12.569c112.943,0,112.943-55.232,225.885-55.232c112.941,0,112.941,55.232,225.882,55.232
					c112.939,0,112.939-55.232,225.879-55.232c112.941,0,112.941,55.232,225.882,55.232c112.941,0,112.941-55.232,225.883-55.232
					c112.942,0,112.942,55.232,225.883,55.232c112.941,0,112.941-55.232,225.881-55.232c112.94,0,112.94,55.232,225.881,55.232
					c57.128,0,85.36-14.132,113.928-28.099V56.211z"/>
			</g>
			<g>
				<g>
					<path style="fill:#9FD4FF;" d="M2000,69.362c-28.579,13.972-56.811,28.115-113.962,28.115
						c-112.941,0-112.941-55.232-225.882-55.232c-112.939,0-112.939,55.232-225.879,55.232
						c-112.941,0-112.941-55.232-225.882-55.232c-112.942,0-112.942,55.232-225.883,55.232S869.571,42.244,756.63,42.244
						c-112.941,0-112.941,55.232-225.881,55.232S417.808,42.244,304.868,42.244c-112.941,0-112.941,55.232-225.882,55.232
						c-34.889,0-58.994-5.273-78.986-12.558v13.139c19.998,7.291,44.111,12.569,79.018,12.569
						c112.942,0,112.942-55.232,225.885-55.232c112.941,0,112.941,55.232,225.882,55.232c112.939,0,112.939-55.232,225.879-55.232
						c112.941,0,112.941,55.232,225.882,55.232c112.941,0,112.941-55.232,225.883-55.232s112.942,55.232,225.883,55.232
						c112.941,0,112.941-55.232,225.881-55.232c112.94,0,112.94,55.232,225.881,55.232c57.128,0,85.36-14.132,113.928-28.099V69.362
						z"/>
				</g>
				<g>
					<path style="fill:#9FD4FF;" d="M2000,95.663c-28.579,13.972-56.811,28.115-113.962,28.115
						c-112.941,0-112.941-55.232-225.882-55.232c-112.939,0-112.939,55.232-225.879,55.232
						c-112.941,0-112.941-55.232-225.882-55.232c-112.942,0-112.942,55.232-225.883,55.232S869.571,68.545,756.63,68.545
						c-112.941,0-112.941,55.232-225.881,55.232S417.808,68.545,304.868,68.545c-112.941,0-112.941,55.232-225.882,55.232
						c-34.889,0-58.994-5.273-78.986-12.558v12.342c19.998,7.291,44.111,12.569,79.018,12.569
						c112.942,0,112.942-55.232,225.885-55.232c112.941,0,112.941,55.232,225.882,55.232c112.939,0,112.939-55.232,225.879-55.232
						c112.941,0,112.941,55.232,225.882,55.232c112.941,0,112.941-55.232,225.883-55.232s112.942,55.232,225.883,55.232
						c112.941,0,112.941-55.232,225.881-55.232c112.94,0,112.94,55.232,225.881,55.232c57.128,0,85.36-14.132,113.928-28.099V95.663
						z"/>
				</g>
				<g>
					<path style="fill:#9FD4FF;" d="M2000,121.964c-28.579,13.972-56.811,28.115-113.962,28.115
						c-112.941,0-112.941-55.232-225.882-55.232c-112.939,0-112.939,55.232-225.879,55.232
						c-112.941,0-112.941-55.232-225.882-55.232c-112.942,0-112.942,55.232-225.883,55.232S869.571,94.846,756.63,94.846
						c-112.941,0-112.941,55.232-225.881,55.232S417.808,94.846,304.868,94.846c-112.941,0-112.941,55.232-225.882,55.232
						c-34.889,0-58.994-5.273-78.986-12.558v11.545c19.998,7.291,44.111,12.57,79.018,12.57
						c112.942,0,112.942-55.232,225.885-55.232c112.941,0,112.941,55.232,225.882,55.232c112.939,0,112.939-55.232,225.879-55.232
						c112.941,0,112.941,55.232,225.882,55.232c112.941,0,112.941-55.232,225.883-55.232s112.942,55.232,225.883,55.232
						c112.941,0,112.941-55.232,225.881-55.232c112.94,0,112.94,55.232,225.881,55.232c57.128,0,85.36-14.132,113.928-28.099
						V121.964z"/>
				</g>
				<g>
					<path style="fill:#9FD4FF;" d="M2000,148.265c-28.579,13.972-56.811,28.115-113.962,28.115
						c-112.941,0-112.941-55.232-225.882-55.232c-112.939,0-112.939,55.232-225.879,55.232
						c-112.941,0-112.941-55.232-225.882-55.232c-112.942,0-112.942,55.232-225.883,55.232s-112.941-55.232-225.883-55.232
						c-112.941,0-112.941,55.232-225.881,55.232s-112.941-55.232-225.881-55.232c-112.941,0-112.941,55.232-225.882,55.232
						c-34.889,0-58.994-5.273-78.986-12.558v10.748c19.998,7.291,44.111,12.569,79.018,12.569
						c112.942,0,112.942-55.232,225.885-55.232c112.941,0,112.941,55.232,225.882,55.232c112.939,0,112.939-55.232,225.879-55.232
						c112.941,0,112.941,55.232,225.882,55.232c112.941,0,112.941-55.232,225.883-55.232s112.942,55.232,225.883,55.232
						c112.941,0,112.941-55.232,225.881-55.232c112.94,0,112.94,55.232,225.881,55.232c57.128,0,85.36-14.132,113.928-28.099
						V148.265z"/>
				</g>
				<g>
					<path style="fill:#9FD4FF;" d="M2000,174.566c-28.579,13.972-56.811,28.115-113.962,28.115
						c-112.941,0-112.941-55.232-225.882-55.232c-112.939,0-112.939,55.232-225.879,55.232
						c-112.941,0-112.941-55.232-225.882-55.232c-112.942,0-112.942,55.232-225.883,55.232s-112.941-55.232-225.883-55.232
						c-112.941,0-112.941,55.232-225.881,55.232s-112.941-55.232-225.881-55.232c-112.941,0-112.941,55.232-225.882,55.232
						c-34.889,0-58.994-5.273-78.986-12.558v9.951c19.998,7.291,44.111,12.57,79.018,12.57c112.942,0,112.942-55.232,225.885-55.232
						c112.941,0,112.941,55.232,225.882,55.232c112.939,0,112.939-55.232,225.879-55.232c112.941,0,112.941,55.232,225.882,55.232
						c112.941,0,112.941-55.232,225.883-55.232s112.942,55.232,225.883,55.232c112.941,0,112.941-55.232,225.881-55.232
						c112.94,0,112.94,55.232,225.881,55.232c57.128,0,85.36-14.132,113.928-28.099V174.566z"/>
				</g>
				<g>
					<path style="fill:#9FD4FF;" d="M2000,200.867c-28.579,13.972-56.811,28.115-113.962,28.115
						c-112.941,0-112.941-55.232-225.882-55.232c-112.939,0-112.939,55.232-225.879,55.232
						c-112.941,0-112.941-55.232-225.882-55.232c-112.942,0-112.942,55.232-225.883,55.232S869.571,173.75,756.63,173.75
						c-112.941,0-112.941,55.232-225.881,55.232S417.808,173.75,304.868,173.75c-112.941,0-112.941,55.232-225.882,55.232
						c-34.889,0-58.994-5.273-78.986-12.558v9.154c19.998,7.291,44.111,12.57,79.018,12.57c112.942,0,112.942-55.232,225.885-55.232
						c112.941,0,112.941,55.232,225.882,55.232c112.939,0,112.939-55.232,225.879-55.232c112.941,0,112.941,55.232,225.882,55.232
						c112.941,0,112.941-55.232,225.883-55.232s112.942,55.232,225.883,55.232c112.941,0,112.941-55.232,225.881-55.232
						c112.94,0,112.94,55.232,225.881,55.232c57.128,0,85.36-14.132,113.928-28.099V200.867z"/>
				</g>
				<g>
					<path style="fill:#9FD4FF;" d="M2000,227.168c-28.579,13.972-56.811,28.115-113.962,28.115
						c-112.941,0-112.941-55.232-225.882-55.232c-112.939,0-112.939,55.232-225.879,55.232
						c-112.941,0-112.941-55.232-225.882-55.232c-112.942,0-112.942,55.232-225.883,55.232s-112.941-55.232-225.883-55.232
						c-112.941,0-112.941,55.232-225.881,55.232s-112.941-55.232-225.881-55.232c-112.941,0-112.941,55.232-225.882,55.232
						c-34.889,0-58.994-5.273-78.986-12.558v8.357c19.998,7.291,44.111,12.569,79.018,12.569
						c112.942,0,112.942-55.232,225.885-55.232c112.941,0,112.941,55.232,225.882,55.232c112.939,0,112.939-55.232,225.879-55.232
						c112.941,0,112.941,55.232,225.882,55.232c112.941,0,112.941-55.232,225.883-55.232s112.942,55.232,225.883,55.232
						c112.941,0,112.941-55.232,225.881-55.232c112.94,0,112.94,55.232,225.881,55.232c57.128,0,85.36-14.132,113.928-28.099
						V227.168z"/>
				</g>
				<g>
					<path style="fill:#9FD4FF;" d="M2000,253.469c-28.579,13.972-56.811,28.115-113.962,28.115
						c-112.941,0-112.941-55.232-225.882-55.232c-112.939,0-112.939,55.232-225.879,55.232
						c-112.941,0-112.941-55.232-225.882-55.232c-112.942,0-112.942,55.232-225.883,55.232s-112.941-55.232-225.883-55.232
						c-112.941,0-112.941,55.232-225.881,55.232s-112.941-55.232-225.881-55.232c-112.941,0-112.941,55.232-225.882,55.232
						c-34.889,0-58.994-5.273-78.986-12.558v7.56c19.998,7.291,44.111,12.569,79.018,12.569
						c112.942,0,112.942-55.232,225.885-55.232c112.941,0,112.941,55.232,225.882,55.232c112.939,0,112.939-55.232,225.879-55.232
						c112.941,0,112.941,55.232,225.882,55.232c112.941,0,112.941-55.232,225.883-55.232s112.942,55.232,225.883,55.232
						c112.941,0,112.941-55.232,225.881-55.232c112.94,0,112.94,55.232,225.881,55.232c57.128,0,85.36-14.132,113.928-28.099
						V253.469z"/>
				</g>
				<g>
					<path style="fill:#9FD4FF;" d="M2000,279.771c-28.579,13.972-56.811,28.115-113.962,28.115
						c-112.941,0-112.941-55.232-225.882-55.232c-112.939,0-112.939,55.232-225.879,55.232
						c-112.941,0-112.941-55.232-225.882-55.232c-112.942,0-112.942,55.232-225.883,55.232s-112.941-55.232-225.883-55.232
						c-112.941,0-112.941,55.232-225.881,55.232s-112.941-55.232-225.881-55.232c-112.941,0-112.941,55.232-225.882,55.232
						c-34.889,0-58.994-5.273-78.986-12.558v6.763c19.998,7.291,44.111,12.569,79.018,12.569
						c112.942,0,112.942-55.232,225.885-55.232c112.941,0,112.941,55.232,225.882,55.232c112.939,0,112.939-55.232,225.879-55.232
						c112.941,0,112.941,55.232,225.882,55.232c112.941,0,112.941-55.232,225.883-55.232s112.942,55.232,225.883,55.232
						c112.941,0,112.941-55.232,225.881-55.232c112.94,0,112.94,55.232,225.881,55.232c57.128,0,85.36-14.132,113.928-28.099
						V279.771z"/>
				</g>
				<g>
					<path style="fill:#9FD4FF;" d="M2000,306.072c-28.579,13.972-56.811,28.115-113.962,28.115
						c-112.941,0-112.941-55.232-225.882-55.232c-112.939,0-112.939,55.232-225.879,55.232
						c-112.941,0-112.941-55.232-225.882-55.232c-112.942,0-112.942,55.232-225.883,55.232s-112.941-55.232-225.883-55.232
						c-112.941,0-112.941,55.232-225.881,55.232s-112.941-55.232-225.881-55.232c-112.941,0-112.941,55.232-225.882,55.232
						c-34.889,0-58.994-5.273-78.986-12.558v5.966c19.998,7.291,44.111,12.569,79.018,12.569
						c112.942,0,112.942-55.232,225.885-55.232c112.941,0,112.941,55.232,225.882,55.232c112.939,0,112.939-55.232,225.879-55.232
						c112.941,0,112.941,55.232,225.882,55.232c112.941,0,112.941-55.232,225.883-55.232s112.942,55.232,225.883,55.232
						c112.941,0,112.941-55.232,225.881-55.232c112.94,0,112.94,55.232,225.881,55.232c57.128,0,85.36-14.132,113.928-28.099
						V306.072z"/>
				</g>
				<g>
					<path style="fill:#9FD4FF;" d="M2000,332.373c-28.579,13.972-56.811,28.115-113.962,28.115
						c-112.941,0-112.941-55.232-225.882-55.232c-112.939,0-112.939,55.232-225.879,55.232
						c-112.941,0-112.941-55.232-225.882-55.232c-112.942,0-112.942,55.232-225.883,55.232s-112.941-55.232-225.883-55.232
						c-112.941,0-112.941,55.232-225.881,55.232s-112.941-55.232-225.881-55.232c-112.941,0-112.941,55.232-225.882,55.232
						c-34.889,0-58.994-5.273-78.986-12.558v5.169c19.998,7.291,44.111,12.569,79.018,12.569
						c112.942,0,112.942-55.232,225.885-55.232c112.941,0,112.941,55.232,225.882,55.232c112.939,0,112.939-55.232,225.879-55.232
						c112.941,0,112.941,55.232,225.882,55.232c112.941,0,112.941-55.232,225.883-55.232s112.942,55.232,225.883,55.232
						c112.941,0,112.941-55.232,225.881-55.232c112.94,0,112.94,55.232,225.881,55.232c57.128,0,85.36-14.132,113.928-28.099
						V332.373z"/>
				</g>
				<g>
					<path style="fill:#9FD4FF;" d="M2000,358.674c-28.579,13.972-56.811,28.115-113.962,28.115
						c-112.941,0-112.941-55.232-225.882-55.232c-112.939,0-112.939,55.232-225.879,55.232
						c-112.941,0-112.941-55.232-225.882-55.232c-112.942,0-112.942,55.232-225.883,55.232s-112.941-55.232-225.883-55.232
						c-112.941,0-112.941,55.232-225.881,55.232s-112.941-55.232-225.881-55.232c-112.941,0-112.941,55.232-225.882,55.232
						c-34.889,0-58.994-5.273-78.986-12.558v4.372c19.998,7.291,44.111,12.569,79.018,12.569
						c112.942,0,112.942-55.232,225.885-55.232c112.941,0,112.941,55.232,225.882,55.232c112.939,0,112.939-55.232,225.879-55.232
						c112.941,0,112.941,55.232,225.882,55.232c112.941,0,112.941-55.232,225.883-55.232s112.942,55.232,225.883,55.232
						c112.941,0,112.941-55.232,225.881-55.232c112.94,0,112.94,55.232,225.881,55.232c57.128,0,85.36-14.132,113.928-28.099
						V358.674z"/>
				</g>
			</g>
		</g>
		<g>
			<g>
				<path style="fill:#FFFFFF;" d="M2000,306.7c-22.02-9.255-48.117-16.516-89.062-16.516c-112.943,0-112.943,55.232-225.885,55.232
					c-112.941,0-112.941-55.232-225.882-55.232c-112.939,0-112.939,55.232-225.879,55.232c-112.941,0-112.941-55.232-225.881-55.232
					c-112.942,0-112.942,55.232-225.883,55.232c-112.942,0-112.942-55.232-225.883-55.232c-112.941,0-112.941,55.232-225.881,55.232
					c-112.941,0-112.941-55.232-225.881-55.232c-50.456,0-78.369,11.025-103.883,23.222v317.821
					c25.524-12.204,53.439-23.238,103.918-23.238c112.941,0,112.941,55.232,225.881,55.232c112.94,0,112.94-55.232,225.879-55.232
					c112.941,0,112.941,55.232,225.882,55.232c112.942,0,112.942-55.232,225.883-55.232s112.941,55.232,225.883,55.232
					c112.941,0,112.941-55.232,225.881-55.232c112.94,0,112.94,55.232,225.881,55.232c112.941,0,112.941-55.232,225.881-55.232
					c40.925,0,67.018,7.254,89.031,16.503V306.7z"/>
			</g>
			<g>
				<g>
					<path style="fill:#9FD4FF;" d="M2000,319.85c-22.02-9.255-48.117-16.516-89.062-16.516
						c-112.942,0-112.942,55.232-225.885,55.232c-112.941,0-112.941-55.232-225.882-55.232
						c-112.939,0-112.939,55.232-225.879,55.232c-112.941,0-112.941-55.232-225.881-55.232
						c-112.942,0-112.942,55.232-225.883,55.232c-112.942,0-112.942-55.232-225.883-55.232
						c-112.941,0-112.941,55.232-225.881,55.232c-112.941,0-112.941-55.232-225.881-55.232c-50.456,0-78.369,11.025-103.883,23.222
						v13.166c25.524-12.204,53.439-23.238,103.918-23.238c112.941,0,112.941,55.232,225.881,55.232
						c112.94,0,112.94-55.232,225.879-55.232c112.941,0,112.941,55.232,225.882,55.232c112.942,0,112.942-55.232,225.883-55.232
						s112.941,55.232,225.883,55.232c112.941,0,112.941-55.232,225.881-55.232c112.94,0,112.941,55.232,225.881,55.232
						c112.941,0,112.941-55.232,225.881-55.232c40.925,0,67.018,7.254,89.031,16.503V319.85z"/>
				</g>
				<g>
					<path style="fill:#9FD4FF;" d="M2000,346.151c-22.02-9.255-48.117-16.516-89.062-16.516
						c-112.942,0-112.942,55.232-225.885,55.232c-112.941,0-112.941-55.232-225.882-55.232
						c-112.939,0-112.939,55.232-225.879,55.232c-112.941,0-112.941-55.232-225.881-55.232
						c-112.942,0-112.942,55.232-225.883,55.232c-112.942,0-112.942-55.232-225.883-55.232
						c-112.941,0-112.941,55.232-225.881,55.232c-112.941,0-112.941-55.232-225.881-55.232c-50.456,0-78.369,11.025-103.883,23.222
						v12.369c25.524-12.204,53.439-23.238,103.918-23.238c112.941,0,112.941,55.232,225.881,55.232
						c112.94,0,112.94-55.232,225.879-55.232c112.941,0,112.941,55.232,225.882,55.232c112.942,0,112.942-55.232,225.883-55.232
						s112.941,55.232,225.883,55.232c112.941,0,112.941-55.232,225.881-55.232c112.94,0,112.941,55.232,225.881,55.232
						c112.941,0,112.941-55.232,225.881-55.232c40.925,0,67.018,7.254,89.031,16.503V346.151z"/>
				</g>
				<g>
					<path style="fill:#9FD4FF;" d="M2000,372.453c-22.02-9.255-48.117-16.516-89.062-16.516
						c-112.942,0-112.942,55.232-225.885,55.232c-112.941,0-112.941-55.232-225.882-55.232
						c-112.939,0-112.939,55.232-225.879,55.232c-112.941,0-112.941-55.232-225.881-55.232
						c-112.942,0-112.942,55.232-225.883,55.232c-112.942,0-112.942-55.232-225.883-55.232
						c-112.941,0-112.941,55.232-225.881,55.232c-112.941,0-112.941-55.232-225.881-55.232c-50.456,0-78.369,11.025-103.883,23.222
						v11.572c25.524-12.204,53.439-23.238,103.918-23.238c112.941,0,112.941,55.232,225.881,55.232
						c112.94,0,112.94-55.232,225.879-55.232c112.941,0,112.941,55.232,225.882,55.232c112.942,0,112.942-55.232,225.883-55.232
						s112.941,55.232,225.883,55.232c112.941,0,112.941-55.232,225.881-55.232c112.94,0,112.941,55.232,225.881,55.232
						c112.941,0,112.941-55.232,225.881-55.232c40.925,0,67.018,7.254,89.031,16.503V372.453z"/>
				</g>
				<g>
					<path style="fill:#9FD4FF;" d="M2000,398.754c-22.02-9.255-48.117-16.516-89.062-16.516
						c-112.942,0-112.942,55.232-225.885,55.232c-112.941,0-112.941-55.232-225.882-55.232
						c-112.939,0-112.939,55.232-225.879,55.232c-112.941,0-112.941-55.232-225.881-55.232
						c-112.942,0-112.942,55.232-225.883,55.232c-112.942,0-112.942-55.232-225.883-55.232
						c-112.941,0-112.941,55.232-225.881,55.232c-112.941,0-112.941-55.232-225.881-55.232c-50.456,0-78.369,11.025-103.883,23.222
						v10.775c25.524-12.204,53.439-23.238,103.918-23.238c112.941,0,112.941,55.232,225.881,55.232
						c112.94,0,112.94-55.232,225.879-55.232c112.941,0,112.941,55.232,225.882,55.232c112.942,0,112.942-55.232,225.883-55.232
						s112.941,55.232,225.883,55.232c112.941,0,112.941-55.232,225.881-55.232c112.94,0,112.941,55.232,225.881,55.232
						c112.941,0,112.941-55.232,225.881-55.232c40.925,0,67.018,7.254,89.031,16.503V398.754z"/>
				</g>
				<g>
					<path style="fill:#9FD4FF;" d="M2000,425.055c-22.02-9.255-48.117-16.516-89.062-16.516
						c-112.942,0-112.942,55.232-225.885,55.232c-112.941,0-112.941-55.232-225.882-55.232
						c-112.939,0-112.939,55.232-225.879,55.232c-112.941,0-112.941-55.232-225.881-55.232
						c-112.942,0-112.942,55.232-225.883,55.232c-112.942,0-112.942-55.232-225.883-55.232
						c-112.941,0-112.941,55.232-225.881,55.232c-112.941,0-112.941-55.232-225.881-55.232c-50.456,0-78.369,11.025-103.883,23.222
						v9.978c25.524-12.204,53.439-23.238,103.918-23.238c112.941,0,112.941,55.232,225.881,55.232
						c112.94,0,112.94-55.232,225.879-55.232c112.941,0,112.941,55.232,225.882,55.232c112.942,0,112.942-55.232,225.883-55.232
						s112.941,55.232,225.883,55.232c112.941,0,112.941-55.232,225.881-55.232c112.94,0,112.941,55.232,225.881,55.232
						c112.941,0,112.941-55.232,225.881-55.232c40.925,0,67.018,7.254,89.031,16.503V425.055z"/>
				</g>
				<g>
					<path style="fill:#9FD4FF;" d="M2000,451.356c-22.02-9.255-48.117-16.516-89.062-16.516
						c-112.942,0-112.942,55.232-225.885,55.232c-112.941,0-112.941-55.232-225.882-55.232
						c-112.939,0-112.939,55.232-225.879,55.232c-112.941,0-112.941-55.232-225.881-55.232
						c-112.942,0-112.942,55.232-225.883,55.232c-112.942,0-112.942-55.232-225.883-55.232
						c-112.941,0-112.941,55.232-225.881,55.232c-112.941,0-112.941-55.232-225.881-55.232c-50.456,0-78.369,11.025-103.883,23.222
						v9.181c25.524-12.204,53.439-23.238,103.918-23.238c112.941,0,112.941,55.232,225.881,55.232
						c112.94,0,112.94-55.232,225.879-55.232c112.941,0,112.941,55.232,225.882,55.232c112.942,0,112.942-55.232,225.883-55.232
						s112.941,55.232,225.883,55.232c112.941,0,112.941-55.232,225.881-55.232c112.94,0,112.941,55.232,225.881,55.232
						c112.941,0,112.941-55.232,225.881-55.232c40.925,0,67.018,7.254,89.031,16.503V451.356z"/>
				</g>
				<g>
					<path style="fill:#9FD4FF;" d="M2000,477.657c-22.02-9.255-48.117-16.516-89.062-16.516
						c-112.942,0-112.942,55.232-225.885,55.232c-112.941,0-112.941-55.232-225.882-55.232
						c-112.939,0-112.939,55.232-225.879,55.232c-112.941,0-112.941-55.232-225.881-55.232
						c-112.942,0-112.942,55.232-225.883,55.232c-112.942,0-112.942-55.232-225.883-55.232
						c-112.941,0-112.941,55.232-225.881,55.232c-112.941,0-112.941-55.232-225.881-55.232c-50.456,0-78.369,11.025-103.883,23.222
						v8.384c25.524-12.204,53.439-23.238,103.918-23.238c112.941,0,112.941,55.232,225.881,55.232
						c112.94,0,112.94-55.232,225.879-55.232c112.941,0,112.941,55.232,225.882,55.232c112.942,0,112.942-55.232,225.883-55.232
						s112.941,55.232,225.883,55.232c112.941,0,112.941-55.232,225.881-55.232c112.94,0,112.941,55.232,225.881,55.232
						c112.941,0,112.941-55.232,225.881-55.232c40.925,0,67.018,7.254,89.031,16.503V477.657z"/>
				</g>
				<g>
					<path style="fill:#9FD4FF;" d="M2000,503.958c-22.02-9.255-48.117-16.516-89.062-16.516
						c-112.942,0-112.942,55.232-225.885,55.232c-112.941,0-112.941-55.232-225.882-55.232
						c-112.939,0-112.939,55.232-225.879,55.232c-112.941,0-112.941-55.232-225.881-55.232
						c-112.942,0-112.942,55.232-225.883,55.232c-112.942,0-112.942-55.232-225.883-55.232
						c-112.941,0-112.941,55.232-225.881,55.232c-112.941,0-112.941-55.232-225.881-55.232c-50.456,0-78.369,11.025-103.883,23.222
						v7.587c25.524-12.204,53.439-23.238,103.918-23.238c112.941,0,112.941,55.232,225.881,55.232
						c112.94,0,112.94-55.232,225.879-55.232c112.941,0,112.941,55.232,225.882,55.232c112.942,0,112.942-55.232,225.883-55.232
						s112.941,55.232,225.883,55.232c112.941,0,112.941-55.232,225.881-55.232c112.94,0,112.941,55.232,225.881,55.232
						c112.941,0,112.941-55.232,225.881-55.232c40.925,0,67.018,7.254,89.031,16.503V503.958z"/>
				</g>
				<g>
					<path style="fill:#9FD4FF;" d="M2000,530.259c-22.02-9.255-48.117-16.516-89.062-16.516
						c-112.942,0-112.942,55.232-225.885,55.232c-112.941,0-112.941-55.232-225.882-55.232
						c-112.939,0-112.939,55.232-225.879,55.232c-112.941,0-112.941-55.232-225.881-55.232
						c-112.942,0-112.942,55.232-225.883,55.232c-112.942,0-112.942-55.232-225.883-55.232
						c-112.941,0-112.941,55.232-225.881,55.232c-112.941,0-112.941-55.232-225.881-55.232c-50.456,0-78.369,11.025-103.883,23.222
						v6.79c25.524-12.204,53.439-23.238,103.918-23.238c112.941,0,112.941,55.232,225.881,55.232
						c112.94,0,112.94-55.232,225.879-55.232c112.941,0,112.941,55.232,225.882,55.232c112.942,0,112.942-55.232,225.883-55.232
						s112.941,55.232,225.883,55.232c112.941,0,112.941-55.232,225.881-55.232c112.94,0,112.941,55.232,225.881,55.232
						c112.941,0,112.941-55.232,225.881-55.232c40.925,0,67.018,7.254,89.031,16.503V530.259z"/>
				</g>
				<g>
					<path style="fill:#9FD4FF;" d="M2000,556.56c-22.02-9.255-48.117-16.516-89.062-16.516
						c-112.942,0-112.942,55.232-225.885,55.232c-112.941,0-112.941-55.232-225.882-55.232
						c-112.939,0-112.939,55.232-225.879,55.232c-112.941,0-112.941-55.232-225.881-55.232
						c-112.942,0-112.942,55.232-225.883,55.232c-112.942,0-112.942-55.232-225.883-55.232
						c-112.941,0-112.941,55.232-225.881,55.232c-112.941,0-112.941-55.232-225.881-55.232c-50.456,0-78.369,11.025-103.883,23.222
						v5.993c25.524-12.204,53.439-23.238,103.918-23.238c112.941,0,112.941,55.232,225.881,55.232
						c112.94,0,112.94-55.232,225.879-55.232c112.941,0,112.941,55.232,225.882,55.232c112.942,0,112.942-55.232,225.883-55.232
						s112.941,55.232,225.883,55.232c112.941,0,112.941-55.232,225.881-55.232c112.94,0,112.941,55.232,225.881,55.232
						c112.941,0,112.941-55.232,225.881-55.232c40.925,0,67.018,7.254,89.031,16.503V556.56z"/>
				</g>
				<g>
					<path style="fill:#9FD4FF;" d="M2000,582.862c-22.02-9.255-48.117-16.516-89.062-16.516
						c-112.942,0-112.942,55.232-225.885,55.232c-112.941,0-112.941-55.232-225.882-55.232
						c-112.939,0-112.939,55.232-225.879,55.232c-112.941,0-112.941-55.232-225.881-55.232
						c-112.942,0-112.942,55.232-225.883,55.232c-112.942,0-112.942-55.232-225.883-55.232
						c-112.941,0-112.941,55.232-225.881,55.232c-112.941,0-112.941-55.232-225.881-55.232c-50.456,0-78.369,11.025-103.883,23.222
						v5.196c25.524-12.204,53.439-23.238,103.918-23.238c112.941,0,112.941,55.232,225.881,55.232
						c112.94,0,112.94-55.232,225.879-55.232c112.941,0,112.941,55.232,225.882,55.232c112.942,0,112.942-55.232,225.883-55.232
						c112.941,0,112.941,55.232,225.883,55.232c112.941,0,112.941-55.232,225.881-55.232c112.94,0,112.941,55.232,225.881,55.232
						c112.941,0,112.941-55.232,225.881-55.232c40.925,0,67.018,7.254,89.031,16.503V582.862z"/>
				</g>
				<g>
					<path style="fill:#9FD4FF;" d="M2000,609.163c-22.02-9.255-48.117-16.516-89.062-16.516
						c-112.942,0-112.942,55.232-225.885,55.232c-112.941,0-112.941-55.232-225.882-55.232
						c-112.939,0-112.939,55.232-225.879,55.232c-112.941,0-112.941-55.232-225.881-55.232
						c-112.942,0-112.942,55.232-225.883,55.232c-112.942,0-112.942-55.232-225.883-55.232
						c-112.941,0-112.941,55.232-225.881,55.232c-112.941,0-112.941-55.232-225.881-55.232c-50.456,0-78.369,11.025-103.883,23.222
						v4.399c25.524-12.204,53.439-23.238,103.918-23.238c112.941,0,112.941,55.232,225.881,55.232
						c112.94,0,112.94-55.232,225.879-55.232c112.941,0,112.941,55.232,225.882,55.232c112.942,0,112.942-55.232,225.883-55.232
						s112.941,55.232,225.883,55.232c112.941,0,112.941-55.232,225.881-55.232c112.94,0,112.941,55.232,225.881,55.232
						c112.941,0,112.941-55.232,225.881-55.232c40.925,0,67.018,7.254,89.031,16.503V609.163z"/>
				</g>
			</g>
		</g>
		<g>
			<g>
				<path style="fill:#FFFFFF;" d="M2000,578.392c-28.579,13.972-56.811,28.115-113.962,28.115
					c-112.941,0-112.941-55.232-225.882-55.232c-112.939,0-112.939,55.232-225.879,55.232c-112.941,0-112.941-55.232-225.882-55.232
					c-112.942,0-112.942,55.232-225.883,55.232s-112.941-55.232-225.883-55.232c-112.941,0-112.941,55.232-225.881,55.232
					s-112.94-55.232-225.881-55.232s-112.941,55.232-225.882,55.232c-34.889,0-58.994-5.273-78.986-12.558v317.794
					c19.998,7.291,44.111,12.57,79.018,12.57c112.943,0,112.943-55.232,225.885-55.232c112.941,0,112.941,55.232,225.882,55.232
					c112.939,0,112.939-55.232,225.879-55.232c112.941,0,112.941,55.232,225.882,55.232c112.941,0,112.941-55.232,225.883-55.232
					s112.942,55.232,225.883,55.232c112.941,0,112.941-55.232,225.881-55.232c112.94,0,112.94,55.232,225.881,55.232
					c57.128,0,85.36-14.132,113.928-28.099V578.392z"/>
			</g>
			<g>
				<g>
					<path style="fill:#9FD4FF;" d="M2000,591.543c-28.579,13.972-56.811,28.115-113.962,28.115
						c-112.941,0-112.941-55.232-225.882-55.232c-112.939,0-112.939,55.232-225.879,55.232
						c-112.941,0-112.941-55.232-225.882-55.232c-112.942,0-112.942,55.232-225.883,55.232s-112.941-55.232-225.883-55.232
						c-112.941,0-112.941,55.232-225.881,55.232s-112.941-55.232-225.881-55.232c-112.941,0-112.941,55.232-225.882,55.232
						c-34.889,0-58.994-5.273-78.986-12.558v13.139c19.998,7.291,44.111,12.569,79.018,12.569
						c112.942,0,112.942-55.232,225.885-55.232c112.941,0,112.941,55.232,225.882,55.232c112.939,0,112.939-55.232,225.879-55.232
						c112.941,0,112.941,55.232,225.882,55.232c112.941,0,112.941-55.232,225.883-55.232s112.942,55.232,225.883,55.232
						c112.941,0,112.941-55.232,225.881-55.232c112.94,0,112.94,55.232,225.881,55.232c57.128,0,85.36-14.132,113.928-28.099
						V591.543z"/>
				</g>
				<g>
					<path style="fill:#9FD4FF;" d="M2000,617.844c-28.579,13.972-56.811,28.115-113.962,28.115
						c-112.941,0-112.941-55.232-225.882-55.232c-112.939,0-112.939,55.232-225.879,55.232
						c-112.941,0-112.941-55.232-225.882-55.232c-112.942,0-112.942,55.232-225.883,55.232s-112.941-55.232-225.883-55.232
						c-112.941,0-112.941,55.232-225.881,55.232s-112.941-55.232-225.881-55.232c-112.941,0-112.941,55.232-225.882,55.232
						c-34.889,0-58.994-5.273-78.986-12.558v12.342c19.998,7.291,44.111,12.569,79.018,12.569
						c112.942,0,112.942-55.232,225.885-55.232c112.941,0,112.941,55.232,225.882,55.232c112.939,0,112.939-55.232,225.879-55.232
						c112.941,0,112.941,55.232,225.882,55.232c112.941,0,112.941-55.232,225.883-55.232s112.942,55.232,225.883,55.232
						c112.941,0,112.941-55.232,225.881-55.232c112.94,0,112.94,55.232,225.881,55.232c57.128,0,85.36-14.132,113.928-28.099
						V617.844z"/>
				</g>
				<g>
					<path style="fill:#9FD4FF;" d="M2000,644.145c-28.579,13.972-56.811,28.115-113.962,28.115
						c-112.941,0-112.941-55.232-225.882-55.232c-112.939,0-112.939,55.232-225.879,55.232
						c-112.941,0-112.941-55.232-225.882-55.232c-112.942,0-112.942,55.232-225.883,55.232s-112.941-55.232-225.883-55.232
						c-112.941,0-112.941,55.232-225.881,55.232s-112.941-55.232-225.881-55.232c-112.941,0-112.941,55.232-225.882,55.232
						c-34.889,0-58.994-5.273-78.986-12.558v11.545c19.998,7.291,44.111,12.569,79.018,12.569
						c112.942,0,112.942-55.232,225.885-55.232c112.941,0,112.941,55.232,225.882,55.232c112.939,0,112.939-55.232,225.879-55.232
						c112.941,0,112.941,55.232,225.882,55.232c112.941,0,112.941-55.232,225.883-55.232s112.942,55.232,225.883,55.232
						c112.941,0,112.941-55.232,225.881-55.232c112.94,0,112.94,55.232,225.881,55.232c57.128,0,85.36-14.132,113.928-28.099
						V644.145z"/>
				</g>
				<g>
					<path style="fill:#9FD4FF;" d="M2000,670.446c-28.579,13.972-56.811,28.115-113.962,28.115
						c-112.941,0-112.941-55.232-225.882-55.232c-112.939,0-112.939,55.232-225.879,55.232
						c-112.941,0-112.941-55.232-225.882-55.232c-112.942,0-112.942,55.232-225.883,55.232s-112.941-55.232-225.883-55.232
						c-112.941,0-112.941,55.232-225.881,55.232s-112.941-55.232-225.881-55.232c-112.941,0-112.941,55.232-225.882,55.232
						c-34.889,0-58.994-5.273-78.986-12.558v10.748c19.998,7.291,44.111,12.569,79.018,12.569
						c112.942,0,112.942-55.232,225.885-55.232c112.941,0,112.941,55.232,225.882,55.232c112.939,0,112.939-55.232,225.879-55.232
						c112.941,0,112.941,55.232,225.882,55.232c112.941,0,112.941-55.232,225.883-55.232s112.942,55.232,225.883,55.232
						c112.941,0,112.941-55.232,225.881-55.232c112.94,0,112.94,55.232,225.881,55.232c57.128,0,85.36-14.132,113.928-28.099
						V670.446z"/>
				</g>
				<g>
					<path style="fill:#9FD4FF;" d="M2000,696.747c-28.579,13.972-56.811,28.115-113.962,28.115
						c-112.941,0-112.941-55.232-225.882-55.232c-112.939,0-112.939,55.232-225.879,55.232
						c-112.941,0-112.941-55.232-225.882-55.232c-112.942,0-112.942,55.232-225.883,55.232S869.571,669.63,756.63,669.63
						c-112.941,0-112.941,55.232-225.881,55.232S417.808,669.63,304.868,669.63c-112.941,0-112.941,55.232-225.882,55.232
						c-34.889,0-58.994-5.273-78.986-12.558v9.951c19.998,7.291,44.111,12.569,79.018,12.569
						c112.942,0,112.942-55.232,225.885-55.232c112.941,0,112.941,55.232,225.882,55.232c112.939,0,112.939-55.232,225.879-55.232
						c112.941,0,112.941,55.232,225.882,55.232c112.941,0,112.941-55.232,225.883-55.232s112.942,55.232,225.883,55.232
						c112.941,0,112.941-55.232,225.881-55.232c112.94,0,112.94,55.232,225.881,55.232c57.128,0,85.36-14.132,113.928-28.099
						V696.747z"/>
				</g>
				<g>
					<path style="fill:#9FD4FF;" d="M2000,723.048c-28.579,13.972-56.811,28.115-113.962,28.115
						c-112.941,0-112.941-55.232-225.882-55.232c-112.939,0-112.939,55.232-225.879,55.232
						c-112.941,0-112.941-55.232-225.882-55.232c-112.942,0-112.942,55.232-225.883,55.232s-112.941-55.232-225.883-55.232
						c-112.941,0-112.941,55.232-225.881,55.232s-112.941-55.232-225.881-55.232c-112.941,0-112.941,55.232-225.882,55.232
						c-34.889,0-58.994-5.273-78.986-12.558v9.154c19.998,7.291,44.111,12.569,79.018,12.569
						c112.942,0,112.942-55.232,225.885-55.232c112.941,0,112.941,55.232,225.882,55.232c112.939,0,112.939-55.232,225.879-55.232
						c112.941,0,112.941,55.232,225.882,55.232c112.941,0,112.941-55.232,225.883-55.232s112.942,55.232,225.883,55.232
						c112.941,0,112.941-55.232,225.881-55.232c112.94,0,112.94,55.232,225.881,55.232c57.128,0,85.36-14.132,113.928-28.099
						V723.048z"/>
				</g>
				<g>
					<path style="fill:#9FD4FF;" d="M2000,749.349c-28.579,13.972-56.811,28.115-113.962,28.115
						c-112.941,0-112.941-55.232-225.882-55.232c-112.939,0-112.939,55.232-225.879,55.232
						c-112.941,0-112.941-55.232-225.882-55.232c-112.942,0-112.942,55.232-225.883,55.232s-112.941-55.232-225.883-55.232
						c-112.941,0-112.941,55.232-225.881,55.232s-112.941-55.232-225.881-55.232c-112.941,0-112.941,55.232-225.882,55.232
						c-34.889,0-58.994-5.273-78.986-12.558v8.357c19.998,7.291,44.111,12.57,79.018,12.57c112.942,0,112.942-55.233,225.885-55.233
						c112.941,0,112.941,55.233,225.882,55.233c112.939,0,112.939-55.233,225.879-55.233c112.941,0,112.941,55.233,225.882,55.233
						c112.941,0,112.941-55.233,225.883-55.233s112.942,55.233,225.883,55.233c112.941,0,112.941-55.233,225.881-55.233
						c112.94,0,112.94,55.233,225.881,55.233c57.128,0,85.36-14.132,113.928-28.099V749.349z"/>
				</g>
				<g>
					<path style="fill:#9FD4FF;" d="M2000,775.651c-28.579,13.972-56.811,28.115-113.962,28.115
						c-112.941,0-112.941-55.232-225.882-55.232c-112.939,0-112.939,55.232-225.879,55.232
						c-112.941,0-112.941-55.232-225.882-55.232c-112.942,0-112.942,55.232-225.883,55.232s-112.941-55.232-225.883-55.232
						c-112.941,0-112.941,55.232-225.881,55.232s-112.941-55.232-225.881-55.232c-112.941,0-112.941,55.232-225.882,55.232
						c-34.889,0-58.994-5.273-78.986-12.558v7.56c19.998,7.291,44.111,12.569,79.018,12.569
						c112.942,0,112.942-55.232,225.885-55.232c112.941,0,112.941,55.232,225.882,55.232c112.939,0,112.939-55.232,225.879-55.232
						c112.941,0,112.941,55.232,225.882,55.232c112.941,0,112.941-55.232,225.883-55.232s112.942,55.232,225.883,55.232
						c112.941,0,112.941-55.232,225.881-55.232c112.94,0,112.94,55.232,225.881,55.232c57.128,0,85.36-14.132,113.928-28.099
						V775.651z"/>
				</g>
				<g>
					<path style="fill:#9FD4FF;" d="M2000,801.952c-28.579,13.972-56.811,28.115-113.962,28.115
						c-112.941,0-112.941-55.233-225.882-55.233c-112.939,0-112.939,55.233-225.879,55.233
						c-112.941,0-112.941-55.233-225.882-55.233c-112.942,0-112.942,55.233-225.883,55.233s-112.941-55.233-225.883-55.233
						c-112.941,0-112.941,55.233-225.881,55.233s-112.941-55.233-225.881-55.233c-112.941,0-112.941,55.233-225.882,55.233
						c-34.889,0-58.994-5.273-78.986-12.558v6.763c19.998,7.291,44.111,12.57,79.018,12.57c112.942,0,112.942-55.232,225.885-55.232
						c112.941,0,112.941,55.232,225.882,55.232c112.939,0,112.939-55.232,225.879-55.232c112.941,0,112.941,55.232,225.882,55.232
						c112.941,0,112.941-55.232,225.883-55.232c112.942,0,112.942,55.232,225.883,55.232c112.941,0,112.941-55.232,225.881-55.232
						c112.94,0,112.94,55.232,225.881,55.232c57.128,0,85.36-14.132,113.928-28.099V801.952z"/>
				</g>
				<g>
					<path style="fill:#9FD4FF;" d="M2000,828.253c-28.579,13.972-56.811,28.115-113.962,28.115
						c-112.941,0-112.941-55.232-225.882-55.232c-112.939,0-112.939,55.232-225.879,55.232
						c-112.941,0-112.941-55.232-225.882-55.232c-112.942,0-112.942,55.232-225.883,55.232s-112.941-55.232-225.883-55.232
						c-112.941,0-112.941,55.232-225.881,55.232s-112.941-55.232-225.881-55.232c-112.941,0-112.941,55.232-225.882,55.232
						c-34.889,0-58.994-5.273-78.986-12.558v5.966c19.998,7.291,44.111,12.57,79.018,12.57c112.942,0,112.942-55.233,225.885-55.233
						c112.941,0,112.941,55.233,225.882,55.233c112.939,0,112.939-55.233,225.879-55.233c112.941,0,112.941,55.233,225.882,55.233
						c112.941,0,112.941-55.233,225.883-55.233s112.942,55.233,225.883,55.233c112.941,0,112.941-55.233,225.881-55.233
						c112.94,0,112.94,55.233,225.881,55.233c57.128,0,85.36-14.132,113.928-28.099V828.253z"/>
				</g>
				<g>
					<path style="fill:#9FD4FF;" d="M2000,854.554c-28.579,13.972-56.811,28.115-113.962,28.115
						c-112.941,0-112.941-55.232-225.882-55.232c-112.939,0-112.939,55.232-225.879,55.232
						c-112.941,0-112.941-55.232-225.882-55.232c-112.942,0-112.942,55.232-225.883,55.232s-112.941-55.232-225.883-55.232
						c-112.941,0-112.941,55.232-225.881,55.232s-112.941-55.232-225.881-55.232c-112.941,0-112.941,55.232-225.882,55.232
						c-34.889,0-58.994-5.273-78.986-12.558v5.169c19.998,7.291,44.111,12.569,79.018,12.569
						c112.942,0,112.942-55.232,225.885-55.232c112.941,0,112.941,55.232,225.882,55.232c112.939,0,112.939-55.232,225.879-55.232
						c112.941,0,112.941,55.232,225.882,55.232c112.941,0,112.941-55.232,225.883-55.232s112.942,55.232,225.883,55.232
						c112.941,0,112.941-55.232,225.881-55.232c112.94,0,112.94,55.232,225.881,55.232c57.128,0,85.36-14.132,113.928-28.099
						V854.554z"/>
				</g>
				<g>
					<path style="fill:#9FD4FF;" d="M2000,880.855c-28.579,13.972-56.811,28.115-113.962,28.115
						c-112.941,0-112.941-55.232-225.882-55.232c-112.939,0-112.939,55.232-225.879,55.232
						c-112.941,0-112.941-55.232-225.882-55.232c-112.942,0-112.942,55.232-225.883,55.232s-112.941-55.232-225.883-55.232
						c-112.941,0-112.941,55.232-225.881,55.232s-112.941-55.232-225.881-55.232c-112.941,0-112.941,55.232-225.882,55.232
						c-34.889,0-58.994-5.273-78.986-12.558v4.372c19.998,7.291,44.111,12.569,79.018,12.569
						c112.942,0,112.942-55.232,225.885-55.232c112.941,0,112.941,55.232,225.882,55.232c112.939,0,112.939-55.232,225.879-55.232
						c112.941,0,112.941,55.232,225.882,55.232c112.941,0,112.941-55.232,225.883-55.232c112.942,0,112.942,55.232,225.883,55.232
						c112.941,0,112.941-55.232,225.881-55.232c112.94,0,112.94,55.232,225.881,55.232c57.128,0,85.36-14.132,113.928-28.099
						V880.855z"/>
				</g>
			</g>
		</g>
		<g>
			<g>
				<path style="fill:#FFFFFF;" d="M2000,828.881c-22.02-9.255-48.117-16.516-89.062-16.516
					c-112.943,0-112.943,55.232-225.885,55.232c-112.941,0-112.941-55.232-225.882-55.232c-112.939,0-112.939,55.232-225.879,55.232
					c-112.941,0-112.941-55.232-225.881-55.232c-112.942,0-112.942,55.232-225.883,55.232c-112.942,0-112.942-55.232-225.883-55.232
					c-112.941,0-112.941,55.232-225.881,55.232c-112.941,0-112.941-55.232-225.881-55.232c-50.456,0-78.369,11.025-103.883,23.222
					v317.821c25.524-12.204,53.439-23.238,103.918-23.238c112.941,0,112.941,55.232,225.881,55.232
					c112.94,0,112.94-55.232,225.879-55.232c112.941,0,112.941,55.232,225.882,55.232c112.942,0,112.942-55.232,225.883-55.232
					s112.941,55.232,225.883,55.232c112.941,0,112.941-55.232,225.881-55.232c112.94,0,112.94,55.232,225.881,55.232
					c112.941,0,112.941-55.232,225.881-55.232c40.925,0,67.018,7.254,89.031,16.503V828.881z"/>
			</g>
			<g>
				<g>
					<path style="fill:#9FD4FF;" d="M2000,842.031c-22.02-9.255-48.117-16.516-89.062-16.516
						c-112.942,0-112.942,55.232-225.885,55.232c-112.941,0-112.941-55.232-225.882-55.232
						c-112.939,0-112.939,55.232-225.879,55.232c-112.941,0-112.941-55.232-225.881-55.232
						c-112.942,0-112.942,55.232-225.883,55.232c-112.942,0-112.942-55.232-225.883-55.232
						c-112.941,0-112.941,55.232-225.881,55.232c-112.941,0-112.941-55.232-225.881-55.232c-50.456,0-78.369,11.025-103.883,23.222
						v13.166c25.524-12.204,53.439-23.238,103.918-23.238c112.941,0,112.941,55.232,225.881,55.232
						c112.94,0,112.94-55.232,225.879-55.232c112.941,0,112.941,55.232,225.882,55.232c112.942,0,112.942-55.232,225.883-55.232
						s112.941,55.232,225.883,55.232c112.941,0,112.941-55.232,225.881-55.232c112.94,0,112.941,55.232,225.881,55.232
						c112.941,0,112.941-55.232,225.881-55.232c40.925,0,67.018,7.254,89.031,16.503V842.031z"/>
				</g>
				<g>
					<path style="fill:#9FD4FF;" d="M2000,868.333c-22.02-9.255-48.117-16.516-89.062-16.516
						c-112.942,0-112.942,55.232-225.885,55.232c-112.941,0-112.941-55.232-225.882-55.232
						c-112.939,0-112.939,55.232-225.879,55.232c-112.941,0-112.941-55.232-225.881-55.232
						c-112.942,0-112.942,55.232-225.883,55.232c-112.942,0-112.942-55.232-225.883-55.232
						c-112.941,0-112.941,55.232-225.881,55.232c-112.941,0-112.941-55.232-225.881-55.232c-50.456,0-78.369,11.025-103.883,23.222
						v12.369c25.524-12.204,53.439-23.238,103.918-23.238c112.941,0,112.941,55.232,225.881,55.232
						c112.94,0,112.94-55.232,225.879-55.232c112.941,0,112.941,55.232,225.882,55.232c112.942,0,112.942-55.232,225.883-55.232
						c112.941,0,112.941,55.232,225.883,55.232c112.941,0,112.941-55.232,225.881-55.232c112.94,0,112.941,55.232,225.881,55.232
						c112.941,0,112.941-55.232,225.881-55.232c40.925,0,67.018,7.254,89.031,16.503V868.333z"/>
				</g>
				<g>
					<path style="fill:#9FD4FF;" d="M2000,894.634c-22.02-9.255-48.117-16.516-89.062-16.516
						c-112.942,0-112.942,55.232-225.885,55.232c-112.941,0-112.941-55.232-225.882-55.232
						c-112.939,0-112.939,55.232-225.879,55.232c-112.941,0-112.941-55.232-225.881-55.232
						c-112.942,0-112.942,55.232-225.883,55.232c-112.942,0-112.942-55.232-225.883-55.232
						c-112.941,0-112.941,55.232-225.881,55.232c-112.941,0-112.941-55.232-225.881-55.232c-50.456,0-78.369,11.025-103.883,23.222
						v11.572c25.524-12.204,53.439-23.238,103.918-23.238c112.941,0,112.941,55.232,225.881,55.232
						c112.94,0,112.94-55.232,225.879-55.232c112.941,0,112.941,55.232,225.882,55.232c112.942,0,112.942-55.232,225.883-55.232
						s112.941,55.232,225.883,55.232c112.941,0,112.941-55.232,225.881-55.232c112.94,0,112.941,55.232,225.881,55.232
						c112.941,0,112.941-55.232,225.881-55.232c40.925,0,67.018,7.254,89.031,16.503V894.634z"/>
				</g>
				<g>
					<path style="fill:#9FD4FF;" d="M2000,920.935c-22.02-9.255-48.117-16.516-89.062-16.516
						c-112.942,0-112.942,55.232-225.885,55.232c-112.941,0-112.941-55.232-225.882-55.232
						c-112.939,0-112.939,55.232-225.879,55.232c-112.941,0-112.941-55.232-225.881-55.232
						c-112.942,0-112.942,55.232-225.883,55.232c-112.942,0-112.942-55.232-225.883-55.232
						c-112.941,0-112.941,55.232-225.881,55.232c-112.941,0-112.941-55.232-225.881-55.232c-50.456,0-78.369,11.025-103.883,23.222
						v10.775c25.524-12.204,53.439-23.238,103.918-23.238c112.941,0,112.941,55.232,225.881,55.232
						c112.94,0,112.94-55.232,225.879-55.232c112.941,0,112.941,55.232,225.882,55.232c112.942,0,112.942-55.232,225.883-55.232
						s112.941,55.232,225.883,55.232c112.941,0,112.941-55.232,225.881-55.232c112.94,0,112.941,55.232,225.881,55.232
						c112.941,0,112.941-55.232,225.881-55.232c40.925,0,67.018,7.254,89.031,16.503V920.935z"/>
				</g>
				<g>
					<path style="fill:#9FD4FF;" d="M2000,947.236c-22.02-9.255-48.117-16.516-89.062-16.516
						c-112.942,0-112.942,55.232-225.885,55.232c-112.941,0-112.941-55.232-225.882-55.232
						c-112.939,0-112.939,55.232-225.879,55.232c-112.941,0-112.941-55.232-225.881-55.232
						c-112.942,0-112.942,55.232-225.883,55.232c-112.942,0-112.942-55.232-225.883-55.232
						c-112.941,0-112.941,55.232-225.881,55.232c-112.941,0-112.941-55.232-225.881-55.232c-50.456,0-78.369,11.025-103.883,23.222
						v9.978c25.524-12.204,53.439-23.238,103.918-23.238c112.941,0,112.941,55.232,225.881,55.232
						c112.94,0,112.94-55.232,225.879-55.232c112.941,0,112.941,55.232,225.882,55.232c112.942,0,112.942-55.232,225.883-55.232
						s112.941,55.232,225.883,55.232c112.941,0,112.941-55.232,225.881-55.232c112.94,0,112.941,55.232,225.881,55.232
						c112.941,0,112.941-55.232,225.881-55.232c40.925,0,67.018,7.254,89.031,16.503V947.236z"/>
				</g>
				<g>
					<path style="fill:#9FD4FF;" d="M2000,973.537c-22.02-9.255-48.117-16.516-89.062-16.516
						c-112.942,0-112.942,55.232-225.885,55.232c-112.941,0-112.941-55.232-225.882-55.232
						c-112.939,0-112.939,55.232-225.879,55.232c-112.941,0-112.941-55.232-225.881-55.232
						c-112.942,0-112.942,55.232-225.883,55.232c-112.942,0-112.942-55.232-225.883-55.232
						c-112.941,0-112.941,55.232-225.881,55.232c-112.941,0-112.941-55.232-225.881-55.232c-50.456,0-78.369,11.025-103.883,23.222
						v9.181c25.524-12.204,53.439-23.238,103.918-23.238c112.941,0,112.941,55.232,225.881,55.232
						c112.94,0,112.94-55.232,225.879-55.232c112.941,0,112.941,55.232,225.882,55.232c112.942,0,112.942-55.232,225.883-55.232
						s112.941,55.232,225.883,55.232c112.941,0,112.941-55.232,225.881-55.232c112.94,0,112.941,55.232,225.881,55.232
						c112.941,0,112.941-55.232,225.881-55.232c40.925,0,67.018,7.254,89.031,16.503V973.537z"/>
				</g>
				<g>
					<path style="fill:#9FD4FF;" d="M2000,999.838c-22.02-9.255-48.117-16.516-89.062-16.516
						c-112.942,0-112.942,55.232-225.885,55.232c-112.941,0-112.941-55.232-225.882-55.232
						c-112.939,0-112.939,55.232-225.879,55.232c-112.941,0-112.941-55.232-225.881-55.232
						c-112.942,0-112.942,55.232-225.883,55.232c-112.942,0-112.942-55.232-225.883-55.232
						c-112.941,0-112.941,55.232-225.881,55.232c-112.941,0-112.941-55.232-225.881-55.232c-50.456,0-78.369,11.025-103.883,23.222
						v8.384c25.524-12.204,53.439-23.238,103.918-23.238c112.941,0,112.941,55.232,225.881,55.232
						c112.94,0,112.94-55.232,225.879-55.232c112.941,0,112.941,55.232,225.882,55.232c112.942,0,112.942-55.232,225.883-55.232
						s112.941,55.232,225.883,55.232c112.941,0,112.941-55.232,225.881-55.232c112.94,0,112.941,55.232,225.881,55.232
						c112.941,0,112.941-55.232,225.881-55.232c40.925,0,67.018,7.254,89.031,16.503V999.838z"/>
				</g>
				<g>
					<path style="fill:#9FD4FF;" d="M2000,1026.139c-22.02-9.255-48.117-16.516-89.062-16.516
						c-112.942,0-112.942,55.232-225.885,55.232c-112.941,0-112.941-55.232-225.882-55.232
						c-112.939,0-112.939,55.232-225.879,55.232c-112.941,0-112.941-55.232-225.881-55.232
						c-112.942,0-112.942,55.232-225.883,55.232c-112.942,0-112.942-55.232-225.883-55.232
						c-112.941,0-112.941,55.232-225.881,55.232c-112.941,0-112.941-55.232-225.881-55.232c-50.456,0-78.369,11.025-103.883,23.222
						v7.587c25.524-12.204,53.439-23.238,103.918-23.238c112.941,0,112.941,55.232,225.881,55.232
						c112.94,0,112.94-55.232,225.879-55.232c112.941,0,112.941,55.232,225.882,55.232c112.942,0,112.942-55.232,225.883-55.232
						s112.941,55.232,225.883,55.232c112.941,0,112.941-55.232,225.881-55.232c112.94,0,112.941,55.232,225.881,55.232
						c112.941,0,112.941-55.232,225.881-55.232c40.925,0,67.018,7.254,89.031,16.503V1026.139z"/>
				</g>
				<g>
					<path style="fill:#9FD4FF;" d="M2000,1052.441c-22.02-9.255-48.117-16.516-89.062-16.516
						c-112.942,0-112.942,55.232-225.885,55.232c-112.941,0-112.941-55.232-225.882-55.232
						c-112.939,0-112.939,55.232-225.879,55.232c-112.941,0-112.941-55.232-225.881-55.232
						c-112.942,0-112.942,55.232-225.883,55.232c-112.942,0-112.942-55.232-225.883-55.232
						c-112.941,0-112.941,55.232-225.881,55.232c-112.941,0-112.941-55.232-225.881-55.232c-50.456,0-78.369,11.025-103.883,23.222
						v6.79c25.524-12.204,53.439-23.238,103.918-23.238c112.941,0,112.941,55.232,225.881,55.232
						c112.94,0,112.94-55.232,225.879-55.232c112.941,0,112.941,55.232,225.882,55.232c112.942,0,112.942-55.232,225.883-55.232
						s112.941,55.232,225.883,55.232c112.941,0,112.941-55.232,225.881-55.232c112.94,0,112.941,55.232,225.881,55.232
						c112.941,0,112.941-55.232,225.881-55.232c40.925,0,67.018,7.254,89.031,16.503V1052.441z"/>
				</g>
				<g>
					<path style="fill:#9FD4FF;" d="M2000,1078.742c-22.02-9.255-48.117-16.516-89.062-16.516
						c-112.942,0-112.942,55.232-225.885,55.232c-112.941,0-112.941-55.232-225.882-55.232
						c-112.939,0-112.939,55.232-225.879,55.232c-112.941,0-112.941-55.232-225.881-55.232
						c-112.942,0-112.942,55.232-225.883,55.232c-112.942,0-112.942-55.232-225.883-55.232
						c-112.941,0-112.941,55.232-225.881,55.232c-112.941,0-112.941-55.232-225.881-55.232c-50.456,0-78.369,11.025-103.883,23.222
						v5.993c25.524-12.204,53.439-23.238,103.918-23.238c112.941,0,112.941,55.232,225.881,55.232
						c112.94,0,112.94-55.232,225.879-55.232c112.941,0,112.941,55.232,225.882,55.232c112.942,0,112.942-55.232,225.883-55.232
						s112.941,55.232,225.883,55.232c112.941,0,112.941-55.232,225.881-55.232c112.94,0,112.941,55.232,225.881,55.232
						c112.941,0,112.941-55.232,225.881-55.232c40.925,0,67.018,7.254,89.031,16.503V1078.742z"/>
				</g>
				<g>
					<path style="fill:#9FD4FF;" d="M2000,1105.043c-22.02-9.255-48.117-16.516-89.062-16.516
						c-112.942,0-112.942,55.232-225.885,55.232c-112.941,0-112.941-55.232-225.882-55.232
						c-112.939,0-112.939,55.232-225.879,55.232c-112.941,0-112.941-55.232-225.881-55.232
						c-112.942,0-112.942,55.232-225.883,55.232c-112.942,0-112.942-55.232-225.883-55.232
						c-112.941,0-112.941,55.232-225.881,55.232c-112.941,0-112.941-55.232-225.881-55.232c-50.456,0-78.369,11.025-103.883,23.222
						v5.196c25.524-12.204,53.439-23.238,103.918-23.238c112.941,0,112.941,55.232,225.881,55.232
						c112.94,0,112.94-55.232,225.879-55.232c112.941,0,112.941,55.232,225.882,55.232c112.942,0,112.942-55.232,225.883-55.232
						s112.941,55.232,225.883,55.232c112.941,0,112.941-55.232,225.881-55.232c112.94,0,112.941,55.232,225.881,55.232
						c112.941,0,112.941-55.232,225.881-55.232c40.925,0,67.018,7.254,89.031,16.502V1105.043z"/>
				</g>
				<g>
					<path style="fill:#9FD4FF;" d="M2000,1131.344c-22.02-9.255-48.117-16.516-89.062-16.516
						c-112.942,0-112.942,55.232-225.885,55.232c-112.941,0-112.941-55.232-225.882-55.232
						c-112.939,0-112.939,55.232-225.879,55.232c-112.941,0-112.941-55.232-225.881-55.232
						c-112.942,0-112.942,55.232-225.883,55.232c-112.942,0-112.942-55.232-225.883-55.232
						c-112.941,0-112.941,55.232-225.881,55.232c-112.941,0-112.941-55.232-225.881-55.232c-50.456,0-78.369,11.025-103.883,23.222
						v4.399c25.524-12.204,53.439-23.238,103.918-23.238c112.941,0,112.941,55.232,225.881,55.232
						c112.94,0,112.94-55.232,225.879-55.232c112.941,0,112.941,55.232,225.882,55.232c112.942,0,112.942-55.232,225.883-55.232
						s112.941,55.232,225.883,55.232c112.941,0,112.941-55.232,225.881-55.232c112.94,0,112.941,55.232,225.881,55.232
						c112.941,0,112.941-55.232,225.881-55.232c40.925,0,67.018,7.254,89.031,16.503V1131.344z"/>
				</g>
			</g>
		</g>
		<g>
			<g>
				<path style="fill:#FFFFFF;" d="M2000,1100.573c-28.579,13.972-56.811,28.115-113.962,28.115
					c-112.941,0-112.941-55.232-225.882-55.232c-112.939,0-112.939,55.232-225.879,55.232c-112.941,0-112.941-55.232-225.882-55.232
					c-112.942,0-112.942,55.232-225.883,55.232s-112.941-55.232-225.883-55.232c-112.941,0-112.941,55.232-225.881,55.232
					s-112.94-55.232-225.881-55.232s-112.941,55.232-225.882,55.232c-34.889,0-58.994-5.273-78.986-12.558v317.794
					c19.998,7.291,44.111,12.569,79.018,12.569c112.943,0,112.943-55.232,225.885-55.232c112.941,0,112.941,55.232,225.882,55.232
					c112.939,0,112.939-55.232,225.879-55.232c112.941,0,112.941,55.232,225.882,55.232c112.941,0,112.941-55.232,225.883-55.232
					s112.942,55.232,225.883,55.232c112.941,0,112.941-55.232,225.881-55.232c112.94,0,112.94,55.232,225.881,55.232
					c57.128,0,85.36-14.132,113.928-28.099V1100.573z"/>
			</g>
			<g>
				<g>
					<path style="fill:#9FD4FF;" d="M2000,1113.724c-28.579,13.972-56.811,28.115-113.962,28.115
						c-112.941,0-112.941-55.232-225.882-55.232c-112.939,0-112.939,55.232-225.879,55.232
						c-112.941,0-112.941-55.232-225.882-55.232c-112.942,0-112.942,55.232-225.883,55.232s-112.941-55.232-225.883-55.232
						c-112.941,0-112.941,55.232-225.881,55.232s-112.941-55.232-225.881-55.232c-112.941,0-112.941,55.232-225.882,55.232
						c-34.889,0-58.994-5.273-78.986-12.558v13.139c19.998,7.291,44.111,12.569,79.018,12.569
						c112.942,0,112.942-55.232,225.885-55.232c112.941,0,112.941,55.232,225.882,55.232c112.939,0,112.939-55.232,225.879-55.232
						c112.941,0,112.941,55.232,225.882,55.232c112.941,0,112.941-55.232,225.883-55.232s112.942,55.232,225.883,55.232
						c112.941,0,112.941-55.232,225.881-55.232c112.94,0,112.94,55.232,225.881,55.232c57.128,0,85.36-14.132,113.928-28.099
						V1113.724z"/>
				</g>
				<g>
					<path style="fill:#9FD4FF;" d="M2000,1140.025c-28.579,13.972-56.811,28.115-113.962,28.115
						c-112.941,0-112.941-55.232-225.882-55.232c-112.939,0-112.939,55.232-225.879,55.232
						c-112.941,0-112.941-55.232-225.882-55.232c-112.942,0-112.942,55.232-225.883,55.232s-112.941-55.232-225.883-55.232
						c-112.941,0-112.941,55.232-225.881,55.232s-112.941-55.232-225.881-55.232c-112.941,0-112.941,55.232-225.882,55.232
						c-34.889,0-58.994-5.273-78.986-12.558v12.342c19.998,7.291,44.111,12.569,79.018,12.569
						c112.942,0,112.942-55.232,225.885-55.232c112.941,0,112.941,55.232,225.882,55.232c112.939,0,112.939-55.232,225.879-55.232
						c112.941,0,112.941,55.232,225.882,55.232c112.941,0,112.941-55.232,225.883-55.232s112.942,55.232,225.883,55.232
						c112.941,0,112.941-55.232,225.881-55.232c112.94,0,112.94,55.232,225.881,55.232c57.128,0,85.36-14.132,113.928-28.099
						V1140.025z"/>
				</g>
				<g>
					<path style="fill:#9FD4FF;" d="M2000,1166.326c-28.579,13.972-56.811,28.115-113.962,28.115
						c-112.941,0-112.941-55.232-225.882-55.232c-112.939,0-112.939,55.232-225.879,55.232
						c-112.941,0-112.941-55.232-225.882-55.232c-112.942,0-112.942,55.232-225.883,55.232s-112.941-55.232-225.883-55.232
						c-112.941,0-112.941,55.232-225.881,55.232s-112.941-55.232-225.881-55.232c-112.941,0-112.941,55.232-225.882,55.232
						c-34.889,0-58.994-5.273-78.986-12.558v11.546c19.998,7.291,44.111,12.569,79.018,12.569
						c112.942,0,112.942-55.232,225.885-55.232c112.941,0,112.941,55.232,225.882,55.232c112.939,0,112.939-55.232,225.879-55.232
						c112.941,0,112.941,55.232,225.882,55.232c112.941,0,112.941-55.232,225.883-55.232s112.942,55.232,225.883,55.232
						c112.941,0,112.941-55.232,225.881-55.232c112.94,0,112.94,55.232,225.881,55.232c57.128,0,85.36-14.132,113.928-28.099
						V1166.326z"/>
				</g>
				<g>
					<path style="fill:#9FD4FF;" d="M2000,1192.627c-28.579,13.972-56.811,28.115-113.962,28.115
						c-112.941,0-112.941-55.232-225.882-55.232c-112.939,0-112.939,55.232-225.879,55.232
						c-112.941,0-112.941-55.232-225.882-55.232c-112.942,0-112.942,55.232-225.883,55.232s-112.941-55.232-225.883-55.232
						c-112.941,0-112.941,55.232-225.881,55.232s-112.941-55.232-225.881-55.232c-112.941,0-112.941,55.232-225.882,55.232
						c-34.889,0-58.994-5.273-78.986-12.558v10.748c19.998,7.291,44.111,12.569,79.018,12.569
						c112.942,0,112.942-55.232,225.885-55.232c112.941,0,112.941,55.232,225.882,55.232c112.939,0,112.939-55.232,225.879-55.232
						c112.941,0,112.941,55.232,225.882,55.232c112.941,0,112.941-55.232,225.883-55.232s112.942,55.232,225.883,55.232
						c112.941,0,112.941-55.232,225.881-55.232c112.94,0,112.94,55.232,225.881,55.232c57.128,0,85.36-14.132,113.928-28.099
						V1192.627z"/>
				</g>
				<g>
					<path style="fill:#9FD4FF;" d="M2000,1218.928c-28.579,13.972-56.811,28.115-113.962,28.115
						c-112.941,0-112.941-55.232-225.882-55.232c-112.939,0-112.939,55.232-225.879,55.232
						c-112.941,0-112.941-55.232-225.882-55.232c-112.942,0-112.942,55.232-225.883,55.232s-112.941-55.232-225.883-55.232
						c-112.941,0-112.941,55.232-225.881,55.232s-112.941-55.232-225.881-55.232c-112.941,0-112.941,55.232-225.882,55.232
						c-34.889,0-58.994-5.273-78.986-12.558v9.951c19.998,7.291,44.111,12.57,79.018,12.57c112.942,0,112.942-55.232,225.885-55.232
						c112.941,0,112.941,55.232,225.882,55.232c112.939,0,112.939-55.232,225.879-55.232c112.941,0,112.941,55.232,225.882,55.232
						c112.941,0,112.941-55.232,225.883-55.232s112.942,55.232,225.883,55.232c112.941,0,112.941-55.232,225.881-55.232
						c112.94,0,112.94,55.232,225.881,55.232c57.128,0,85.36-14.132,113.928-28.099V1218.928z"/>
				</g>
				<g>
					<path style="fill:#9FD4FF;" d="M2000,1245.229c-28.579,13.972-56.811,28.115-113.962,28.115
						c-112.941,0-112.941-55.232-225.882-55.232c-112.939,0-112.939,55.232-225.879,55.232
						c-112.941,0-112.941-55.232-225.882-55.232c-112.942,0-112.942,55.232-225.883,55.232s-112.941-55.232-225.883-55.232
						c-112.941,0-112.941,55.232-225.881,55.232s-112.941-55.232-225.881-55.232c-112.941,0-112.941,55.232-225.882,55.232
						c-34.889,0-58.994-5.273-78.986-12.558v9.155c19.998,7.291,44.111,12.569,79.018,12.569
						c112.942,0,112.942-55.232,225.885-55.232c112.941,0,112.941,55.232,225.882,55.232c112.939,0,112.939-55.232,225.879-55.232
						c112.941,0,112.941,55.232,225.882,55.232c112.941,0,112.941-55.232,225.883-55.232s112.942,55.232,225.883,55.232
						c112.941,0,112.941-55.232,225.881-55.232c112.94,0,112.94,55.232,225.881,55.232c57.128,0,85.36-14.132,113.928-28.099
						V1245.229z"/>
				</g>
				<g>
					<path style="fill:#9FD4FF;" d="M2000,1271.531c-28.579,13.972-56.811,28.115-113.962,28.115
						c-112.941,0-112.941-55.232-225.882-55.232c-112.939,0-112.939,55.232-225.879,55.232
						c-112.941,0-112.941-55.232-225.882-55.232c-112.942,0-112.942,55.232-225.883,55.232s-112.941-55.232-225.883-55.232
						c-112.941,0-112.941,55.232-225.881,55.232s-112.941-55.232-225.881-55.232c-112.941,0-112.941,55.232-225.882,55.232
						c-34.889,0-58.994-5.273-78.986-12.558v8.357c19.998,7.291,44.111,12.569,79.018,12.569
						c112.942,0,112.942-55.232,225.885-55.232c112.941,0,112.941,55.232,225.882,55.232c112.939,0,112.939-55.232,225.879-55.232
						c112.941,0,112.941,55.232,225.882,55.232c112.941,0,112.941-55.232,225.883-55.232s112.942,55.232,225.883,55.232
						c112.941,0,112.941-55.232,225.881-55.232c112.94,0,112.94,55.232,225.881,55.232c57.128,0,85.36-14.132,113.928-28.099
						V1271.531z"/>
				</g>
				<g>
					<path style="fill:#9FD4FF;" d="M2000,1297.832c-28.579,13.972-56.811,28.115-113.962,28.115
						c-112.941,0-112.941-55.232-225.882-55.232c-112.939,0-112.939,55.232-225.879,55.232
						c-112.941,0-112.941-55.232-225.882-55.232c-112.942,0-112.942,55.232-225.883,55.232s-112.941-55.232-225.883-55.232
						c-112.941,0-112.941,55.232-225.881,55.232s-112.941-55.232-225.881-55.232c-112.941,0-112.941,55.232-225.882,55.232
						c-34.889,0-58.994-5.273-78.986-12.558v7.56c19.998,7.291,44.111,12.569,79.018,12.569
						c112.942,0,112.942-55.232,225.885-55.232c112.941,0,112.941,55.232,225.882,55.232c112.939,0,112.939-55.232,225.879-55.232
						c112.941,0,112.941,55.232,225.882,55.232c112.941,0,112.941-55.232,225.883-55.232s112.942,55.232,225.883,55.232
						c112.941,0,112.941-55.232,225.881-55.232c112.94,0,112.94,55.232,225.881,55.232c57.128,0,85.36-14.132,113.928-28.099
						V1297.832z"/>
				</g>
				<g>
					<path style="fill:#9FD4FF;" d="M2000,1324.133c-28.579,13.972-56.811,28.115-113.962,28.115
						c-112.941,0-112.941-55.232-225.882-55.232c-112.939,0-112.939,55.232-225.879,55.232
						c-112.941,0-112.941-55.232-225.882-55.232c-112.942,0-112.942,55.232-225.883,55.232s-112.941-55.232-225.883-55.232
						c-112.941,0-112.941,55.232-225.881,55.232s-112.941-55.232-225.881-55.232c-112.941,0-112.941,55.232-225.882,55.232
						c-34.889,0-58.994-5.273-78.986-12.558v6.763c19.998,7.291,44.111,12.569,79.018,12.569
						c112.942,0,112.942-55.232,225.885-55.232c112.941,0,112.941,55.232,225.882,55.232c112.939,0,112.939-55.232,225.879-55.232
						c112.941,0,112.941,55.232,225.882,55.232c112.941,0,112.941-55.232,225.883-55.232s112.942,55.232,225.883,55.232
						c112.941,0,112.941-55.232,225.881-55.232c112.94,0,112.94,55.232,225.881,55.232c57.128,0,85.36-14.132,113.928-28.099
						V1324.133z"/>
				</g>
				<g>
					<path style="fill:#9FD4FF;" d="M2000,1350.434c-28.579,13.972-56.811,28.115-113.962,28.115
						c-112.941,0-112.941-55.232-225.882-55.232c-112.939,0-112.939,55.232-225.879,55.232
						c-112.941,0-112.941-55.232-225.882-55.232c-112.942,0-112.942,55.232-225.883,55.232s-112.941-55.232-225.883-55.232
						c-112.941,0-112.941,55.232-225.881,55.232s-112.941-55.232-225.881-55.232c-112.941,0-112.941,55.232-225.882,55.232
						c-34.889,0-58.994-5.273-78.986-12.558v5.966c19.998,7.291,44.111,12.569,79.018,12.569
						c112.942,0,112.942-55.232,225.885-55.232c112.941,0,112.941,55.232,225.882,55.232c112.939,0,112.939-55.232,225.879-55.232
						c112.941,0,112.941,55.232,225.882,55.232c112.941,0,112.941-55.232,225.883-55.232s112.942,55.232,225.883,55.232
						c112.941,0,112.941-55.232,225.881-55.232c112.94,0,112.94,55.232,225.881,55.232c57.128,0,85.36-14.132,113.928-28.099
						V1350.434z"/>
				</g>
				<g>
					<path style="fill:#9FD4FF;" d="M2000,1376.735c-28.579,13.972-56.811,28.115-113.962,28.115
						c-112.941,0-112.941-55.232-225.882-55.232c-112.939,0-112.939,55.232-225.879,55.232
						c-112.941,0-112.941-55.232-225.882-55.232c-112.942,0-112.942,55.232-225.883,55.232s-112.941-55.232-225.883-55.232
						c-112.941,0-112.941,55.232-225.881,55.232s-112.941-55.232-225.881-55.232c-112.941,0-112.941,55.232-225.882,55.232
						c-34.889,0-58.994-5.273-78.986-12.558v5.169c19.998,7.291,44.111,12.569,79.018,12.569
						c112.942,0,112.942-55.232,225.885-55.232c112.941,0,112.941,55.232,225.882,55.232c112.939,0,112.939-55.232,225.879-55.232
						c112.941,0,112.941,55.232,225.882,55.232c112.941,0,112.941-55.232,225.883-55.232s112.942,55.232,225.883,55.232
						c112.941,0,112.941-55.232,225.881-55.232c112.94,0,112.94,55.232,225.881,55.232c57.128,0,85.36-14.132,113.928-28.099
						V1376.735z"/>
				</g>
				<g>
					<path style="fill:#9FD4FF;" d="M2000,1403.036c-28.579,13.972-56.811,28.115-113.962,28.115
						c-112.941,0-112.941-55.232-225.882-55.232c-112.939,0-112.939,55.232-225.879,55.232
						c-112.941,0-112.941-55.232-225.882-55.232c-112.942,0-112.942,55.232-225.883,55.232s-112.941-55.232-225.883-55.232
						c-112.941,0-112.941,55.232-225.881,55.232s-112.941-55.232-225.881-55.232c-112.941,0-112.941,55.232-225.882,55.232
						c-34.889,0-58.994-5.273-78.986-12.558v4.372c19.998,7.291,44.111,12.569,79.018,12.569
						c112.942,0,112.942-55.232,225.885-55.232c112.941,0,112.941,55.232,225.882,55.232c112.939,0,112.939-55.232,225.879-55.232
						c112.941,0,112.941,55.232,225.882,55.232c112.941,0,112.941-55.232,225.883-55.232s112.942,55.232,225.883,55.232
						c112.941,0,112.941-55.232,225.881-55.232c112.94,0,112.94,55.232,225.881,55.232c57.128,0,85.36-14.132,113.928-28.099
						V1403.036z"/>
				</g>
			</g>
		</g>
		<g>
			<g>
				<path style="fill:#FFFFFF;" d="M2000,1351.062c-22.02-9.255-48.117-16.516-89.062-16.516
					c-112.943,0-112.943,55.232-225.885,55.232c-112.941,0-112.941-55.232-225.882-55.232c-112.939,0-112.939,55.232-225.879,55.232
					c-112.941,0-112.941-55.232-225.881-55.232c-112.942,0-112.942,55.232-225.883,55.232c-112.942,0-112.942-55.232-225.883-55.232
					c-112.941,0-112.941,55.232-225.881,55.232c-112.941,0-112.941-55.232-225.881-55.232c-50.456,0-78.369,11.025-103.883,23.222
					v317.821c25.524-12.204,53.439-23.238,103.918-23.238c112.941,0,112.941,55.232,225.881,55.232
					c112.94,0,112.94-55.232,225.879-55.232c112.941,0,112.941,55.232,225.882,55.232c112.942,0,112.942-55.232,225.883-55.232
					s112.941,55.232,225.883,55.232c112.941,0,112.941-55.232,225.881-55.232c112.94,0,112.94,55.232,225.881,55.232
					c112.941,0,112.941-55.232,225.881-55.232c40.925,0,67.018,7.254,89.031,16.503V1351.062z"/>
			</g>
			<g>
				<g>
					<path style="fill:#9FD4FF;" d="M2000,1364.213c-22.02-9.255-48.117-16.516-89.062-16.516
						c-112.942,0-112.942,55.232-225.885,55.232c-112.941,0-112.941-55.232-225.882-55.232
						c-112.939,0-112.939,55.232-225.879,55.232c-112.941,0-112.941-55.232-225.881-55.232
						c-112.942,0-112.942,55.232-225.883,55.232c-112.942,0-112.942-55.232-225.883-55.232
						c-112.941,0-112.941,55.232-225.881,55.232c-112.941,0-112.941-55.232-225.881-55.232c-50.456,0-78.369,11.025-103.883,23.222
						v13.166c25.524-12.204,53.439-23.238,103.918-23.238c112.941,0,112.941,55.232,225.881,55.232
						c112.94,0,112.94-55.232,225.879-55.232c112.941,0,112.941,55.232,225.882,55.232c112.942,0,112.942-55.232,225.883-55.232
						s112.941,55.232,225.883,55.232c112.941,0,112.941-55.232,225.881-55.232c112.94,0,112.941,55.232,225.881,55.232
						c112.941,0,112.941-55.232,225.881-55.232c40.925,0,67.018,7.254,89.031,16.502V1364.213z"/>
				</g>
				<g>
					<path style="fill:#9FD4FF;" d="M2000,1390.514c-22.02-9.255-48.117-16.516-89.062-16.516
						c-112.942,0-112.942,55.232-225.885,55.232c-112.941,0-112.941-55.232-225.882-55.232
						c-112.939,0-112.939,55.232-225.879,55.232c-112.941,0-112.941-55.232-225.881-55.232
						c-112.942,0-112.942,55.232-225.883,55.232c-112.942,0-112.942-55.232-225.883-55.232
						c-112.941,0-112.941,55.232-225.881,55.232c-112.941,0-112.941-55.232-225.881-55.232c-50.456,0-78.369,11.025-103.883,23.222
						v12.369c25.524-12.204,53.439-23.238,103.918-23.238c112.941,0,112.941,55.232,225.881,55.232
						c112.94,0,112.94-55.232,225.879-55.232c112.941,0,112.941,55.232,225.882,55.232c112.942,0,112.942-55.232,225.883-55.232
						s112.941,55.232,225.883,55.232c112.941,0,112.941-55.232,225.881-55.232c112.94,0,112.941,55.232,225.881,55.232
						c112.941,0,112.941-55.232,225.881-55.232c40.925,0,67.018,7.254,89.031,16.503V1390.514z"/>
				</g>
				<g>
					<path style="fill:#9FD4FF;" d="M2000,1416.815c-22.02-9.255-48.117-16.516-89.062-16.516
						c-112.942,0-112.942,55.232-225.885,55.232c-112.941,0-112.941-55.232-225.882-55.232
						c-112.939,0-112.939,55.232-225.879,55.232c-112.941,0-112.941-55.232-225.881-55.232
						c-112.942,0-112.942,55.232-225.883,55.232c-112.942,0-112.942-55.232-225.883-55.232
						c-112.941,0-112.941,55.232-225.881,55.232c-112.941,0-112.941-55.232-225.881-55.232c-50.456,0-78.369,11.025-103.883,23.222
						v11.572c25.524-12.204,53.439-23.238,103.918-23.238c112.941,0,112.941,55.232,225.881,55.232
						c112.94,0,112.94-55.232,225.879-55.232c112.941,0,112.941,55.232,225.882,55.232c112.942,0,112.942-55.232,225.883-55.232
						s112.941,55.232,225.883,55.232c112.941,0,112.941-55.232,225.881-55.232c112.94,0,112.941,55.232,225.881,55.232
						c112.941,0,112.941-55.232,225.881-55.232c40.925,0,67.018,7.254,89.031,16.502V1416.815z"/>
				</g>
				<g>
					<path style="fill:#9FD4FF;" d="M2000,1443.116c-22.02-9.255-48.117-16.516-89.062-16.516
						c-112.942,0-112.942,55.232-225.885,55.232c-112.941,0-112.941-55.232-225.882-55.232
						c-112.939,0-112.939,55.232-225.879,55.232c-112.941,0-112.941-55.232-225.881-55.232
						c-112.942,0-112.942,55.232-225.883,55.232c-112.942,0-112.942-55.232-225.883-55.232
						c-112.941,0-112.941,55.232-225.881,55.232c-112.941,0-112.941-55.232-225.881-55.232c-50.456,0-78.369,11.025-103.883,23.222
						v10.775c25.524-12.204,53.439-23.238,103.918-23.238c112.941,0,112.941,55.232,225.881,55.232
						c112.94,0,112.94-55.232,225.879-55.232c112.941,0,112.941,55.232,225.882,55.232c112.942,0,112.942-55.232,225.883-55.232
						s112.941,55.232,225.883,55.232c112.941,0,112.941-55.232,225.881-55.232c112.94,0,112.941,55.232,225.881,55.232
						c112.941,0,112.941-55.232,225.881-55.232c40.925,0,67.018,7.254,89.031,16.503V1443.116z"/>
				</g>
				<g>
					<path style="fill:#9FD4FF;" d="M2000,1469.417c-22.02-9.255-48.117-16.516-89.062-16.516
						c-112.942,0-112.942,55.232-225.885,55.232c-112.941,0-112.941-55.232-225.882-55.232
						c-112.939,0-112.939,55.232-225.879,55.232c-112.941,0-112.941-55.232-225.881-55.232
						c-112.942,0-112.942,55.232-225.883,55.232c-112.942,0-112.942-55.232-225.883-55.232
						c-112.941,0-112.941,55.232-225.881,55.232c-112.941,0-112.941-55.232-225.881-55.232c-50.456,0-78.369,11.025-103.883,23.222
						v9.978c25.524-12.204,53.439-23.238,103.918-23.238c112.941,0,112.941,55.233,225.881,55.233
						c112.94,0,112.94-55.233,225.879-55.233c112.941,0,112.941,55.233,225.882,55.233c112.942,0,112.942-55.233,225.883-55.233
						s112.941,55.233,225.883,55.233c112.941,0,112.941-55.233,225.881-55.233c112.94,0,112.941,55.233,225.881,55.233
						c112.941,0,112.941-55.233,225.881-55.233c40.925,0,67.018,7.254,89.031,16.503V1469.417z"/>
				</g>
				<g>
					<path style="fill:#9FD4FF;" d="M2000,1495.718c-22.02-9.255-48.117-16.516-89.062-16.516
						c-112.942,0-112.942,55.232-225.885,55.232c-112.941,0-112.941-55.232-225.882-55.232
						c-112.939,0-112.939,55.232-225.879,55.232c-112.941,0-112.941-55.232-225.881-55.232
						c-112.942,0-112.942,55.232-225.883,55.232c-112.942,0-112.942-55.232-225.883-55.232
						c-112.941,0-112.941,55.232-225.881,55.232c-112.941,0-112.941-55.232-225.881-55.232c-50.456,0-78.369,11.025-103.883,23.222
						v9.181c25.524-12.204,53.439-23.238,103.918-23.238c112.941,0,112.941,55.232,225.881,55.232
						c112.94,0,112.94-55.232,225.879-55.232c112.941,0,112.941,55.232,225.882,55.232c112.942,0,112.942-55.232,225.883-55.232
						s112.941,55.232,225.883,55.232c112.941,0,112.941-55.232,225.881-55.232c112.94,0,112.941,55.232,225.881,55.232
						c112.941,0,112.941-55.232,225.881-55.232c40.925,0,67.018,7.254,89.031,16.502V1495.718z"/>
				</g>
				<g>
					<path style="fill:#9FD4FF;" d="M2000,1522.02c-22.02-9.255-48.117-16.516-89.062-16.516
						c-112.942,0-112.942,55.232-225.885,55.232c-112.941,0-112.941-55.232-225.882-55.232
						c-112.939,0-112.939,55.232-225.879,55.232c-112.941,0-112.941-55.232-225.881-55.232
						c-112.942,0-112.942,55.232-225.883,55.232c-112.942,0-112.942-55.232-225.883-55.232
						c-112.941,0-112.941,55.232-225.881,55.232c-112.941,0-112.941-55.232-225.881-55.232c-50.456,0-78.369,11.025-103.883,23.222
						v8.384c25.524-12.204,53.439-23.238,103.918-23.238c112.941,0,112.941,55.232,225.881,55.232
						c112.94,0,112.94-55.232,225.879-55.232c112.941,0,112.941,55.232,225.882,55.232c112.942,0,112.942-55.232,225.883-55.232
						s112.941,55.232,225.883,55.232c112.941,0,112.941-55.232,225.881-55.232c112.94,0,112.941,55.232,225.881,55.232
						c112.941,0,112.941-55.232,225.881-55.232c40.925,0,67.018,7.254,89.031,16.503V1522.02z"/>
				</g>
				<g>
					<path style="fill:#9FD4FF;" d="M2000,1548.321c-22.02-9.255-48.117-16.516-89.062-16.516
						c-112.942,0-112.942,55.233-225.885,55.233c-112.941,0-112.941-55.233-225.882-55.233
						c-112.939,0-112.939,55.233-225.879,55.233c-112.941,0-112.941-55.233-225.881-55.233
						c-112.942,0-112.942,55.233-225.883,55.233c-112.942,0-112.942-55.233-225.883-55.233
						c-112.941,0-112.941,55.233-225.881,55.233c-112.941,0-112.941-55.233-225.881-55.233c-50.456,0-78.369,11.025-103.883,23.222
						v7.587c25.524-12.204,53.439-23.238,103.918-23.238c112.941,0,112.941,55.232,225.881,55.232
						c112.94,0,112.94-55.232,225.879-55.232c112.941,0,112.941,55.232,225.882,55.232c112.942,0,112.942-55.232,225.883-55.232
						s112.941,55.232,225.883,55.232c112.941,0,112.941-55.232,225.881-55.232c112.94,0,112.941,55.232,225.881,55.232
						c112.941,0,112.941-55.232,225.881-55.232c40.925,0,67.018,7.254,89.031,16.503V1548.321z"/>
				</g>
				<g>
					<path style="fill:#9FD4FF;" d="M2000,1574.622c-22.02-9.255-48.117-16.516-89.062-16.516
						c-112.942,0-112.942,55.232-225.885,55.232c-112.941,0-112.941-55.232-225.882-55.232
						c-112.939,0-112.939,55.232-225.879,55.232c-112.941,0-112.941-55.232-225.881-55.232
						c-112.942,0-112.942,55.232-225.883,55.232c-112.942,0-112.942-55.232-225.883-55.232
						c-112.941,0-112.941,55.232-225.881,55.232c-112.941,0-112.941-55.232-225.881-55.232c-50.456,0-78.369,11.025-103.883,23.222
						v6.79c25.524-12.204,53.439-23.238,103.918-23.238c112.941,0,112.941,55.233,225.881,55.232
						c112.94,0,112.94-55.232,225.879-55.232c112.941,0,112.941,55.233,225.882,55.232c112.942,0,112.942-55.232,225.883-55.232
						s112.941,55.233,225.883,55.232c112.941,0,112.941-55.232,225.881-55.232c112.94,0,112.941,55.233,225.881,55.232
						c112.941,0,112.941-55.232,225.881-55.232c40.925,0,67.018,7.254,89.031,16.503V1574.622z"/>
				</g>
				<g>
					<path style="fill:#9FD4FF;" d="M2000,1600.923c-22.02-9.255-48.117-16.516-89.062-16.516
						c-112.942,0-112.942,55.232-225.885,55.232c-112.941,0-112.941-55.232-225.882-55.232
						c-112.939,0-112.939,55.232-225.879,55.232c-112.941,0-112.941-55.232-225.881-55.232
						c-112.942,0-112.942,55.232-225.883,55.232c-112.942,0-112.942-55.232-225.883-55.232
						c-112.941,0-112.941,55.232-225.881,55.232c-112.941,0-112.941-55.232-225.881-55.232c-50.456,0-78.369,11.025-103.883,23.222
						v5.993c25.524-12.204,53.439-23.238,103.918-23.238c112.941,0,112.941,55.232,225.881,55.232
						c112.94,0,112.94-55.232,225.879-55.232c112.941,0,112.941,55.232,225.882,55.232c112.942,0,112.942-55.232,225.883-55.232
						s112.941,55.232,225.883,55.232c112.941,0,112.941-55.232,225.881-55.232c112.94,0,112.941,55.232,225.881,55.232
						c112.941,0,112.941-55.232,225.881-55.232c40.925,0,67.018,7.254,89.031,16.502V1600.923z"/>
				</g>
				<g>
					<path style="fill:#9FD4FF;" d="M2000,1627.224c-22.02-9.255-48.117-16.516-89.062-16.516
						c-112.942,0-112.942,55.233-225.885,55.233c-112.941,0-112.941-55.233-225.882-55.233
						c-112.939,0-112.939,55.233-225.879,55.233c-112.941,0-112.941-55.233-225.881-55.233
						c-112.942,0-112.942,55.233-225.883,55.233c-112.942,0-112.942-55.233-225.883-55.233
						c-112.941,0-112.941,55.233-225.881,55.233c-112.941,0-112.941-55.233-225.881-55.233c-50.456,0-78.369,11.025-103.883,23.222
						v5.196c25.524-12.204,53.439-23.238,103.918-23.238c112.941,0,112.941,55.232,225.881,55.232
						c112.94,0,112.94-55.232,225.879-55.232c112.941,0,112.941,55.232,225.882,55.232c112.942,0,112.942-55.232,225.883-55.232
						s112.941,55.232,225.883,55.232c112.941,0,112.941-55.232,225.881-55.232c112.94,0,112.941,55.232,225.881,55.232
						c112.941,0,112.941-55.232,225.881-55.232c40.925,0,67.018,7.254,89.031,16.503V1627.224z"/>
				</g>
				<g>
					<path style="fill:#9FD4FF;" d="M2000,1653.525c-22.02-9.255-48.117-16.516-89.062-16.516
						c-112.942,0-112.942,55.232-225.885,55.232c-112.941,0-112.941-55.232-225.882-55.232
						c-112.939,0-112.939,55.232-225.879,55.232c-112.941,0-112.941-55.232-225.881-55.232
						c-112.942,0-112.942,55.232-225.883,55.232c-112.942,0-112.942-55.232-225.883-55.232
						c-112.941,0-112.941,55.232-225.881,55.232c-112.941,0-112.941-55.232-225.881-55.232c-50.456,0-78.369,11.025-103.883,23.222
						v4.399c25.524-12.204,53.439-23.238,103.918-23.238c112.941,0,112.941,55.233,225.881,55.233
						c112.94,0,112.94-55.233,225.879-55.233c112.941,0,112.941,55.233,225.882,55.233c112.942,0,112.942-55.233,225.883-55.233
						s112.941,55.233,225.883,55.233c112.941,0,112.941-55.233,225.881-55.233c112.94,0,112.941,55.233,225.881,55.233
						c112.941,0,112.941-55.233,225.881-55.233c40.925,0,67.018,7.254,89.031,16.503V1653.525z"/>
				</g>
			</g>
		</g>
		<g>
			<g>
				<path style="fill:#FFFFFF;" d="M2000,1622.755c-28.579,13.972-56.811,28.115-113.962,28.115
					c-112.941,0-112.941-55.232-225.882-55.232c-112.939,0-112.939,55.232-225.879,55.232c-112.941,0-112.941-55.232-225.882-55.232
					c-112.942,0-112.942,55.232-225.883,55.232s-112.941-55.232-225.883-55.232c-112.941,0-112.941,55.232-225.881,55.232
					s-112.94-55.232-225.881-55.232s-112.941,55.232-225.882,55.232c-34.889,0-58.994-5.273-78.986-12.558v317.794
					c19.998,7.291,44.111,12.57,79.018,12.57c112.943,0,112.943-55.232,225.885-55.232c112.941,0,112.941,55.232,225.882,55.232
					c112.939,0,112.939-55.232,225.879-55.232c112.941,0,112.941,55.232,225.882,55.232c112.941,0,112.941-55.232,225.883-55.232
					s112.942,55.232,225.883,55.232c112.941,0,112.941-55.232,225.881-55.232c112.94,0,112.94,55.232,225.881,55.232
					c57.128,0,85.36-14.132,113.928-28.099V1622.755z"/>
			</g>
			<g>
				<g>
					<path style="fill:#9FD4FF;" d="M2000,1635.905c-28.579,13.972-56.811,28.115-113.962,28.115
						c-112.941,0-112.941-55.232-225.882-55.232c-112.939,0-112.939,55.232-225.879,55.232
						c-112.941,0-112.941-55.232-225.882-55.232c-112.942,0-112.942,55.232-225.883,55.232s-112.941-55.232-225.883-55.232
						c-112.941,0-112.941,55.232-225.881,55.232s-112.941-55.232-225.881-55.232c-112.941,0-112.941,55.232-225.882,55.232
						c-34.889,0-58.994-5.273-78.986-12.558v13.139c19.998,7.291,44.111,12.569,79.018,12.569
						c112.942,0,112.942-55.232,225.885-55.232c112.941,0,112.941,55.232,225.882,55.232c112.939,0,112.939-55.232,225.879-55.232
						c112.941,0,112.941,55.232,225.882,55.232c112.941,0,112.941-55.232,225.883-55.232s112.942,55.232,225.883,55.232
						c112.941,0,112.941-55.232,225.881-55.232c112.94,0,112.94,55.232,225.881,55.232c57.128,0,85.36-14.132,113.928-28.099
						V1635.905z"/>
				</g>
				<g>
					<path style="fill:#9FD4FF;" d="M2000,1662.206c-28.579,13.972-56.811,28.115-113.962,28.115
						c-112.941,0-112.941-55.232-225.882-55.232c-112.939,0-112.939,55.232-225.879,55.232
						c-112.941,0-112.941-55.232-225.882-55.232c-112.942,0-112.942,55.232-225.883,55.232s-112.941-55.232-225.883-55.232
						c-112.941,0-112.941,55.232-225.881,55.232s-112.941-55.232-225.881-55.232c-112.941,0-112.941,55.232-225.882,55.232
						c-34.889,0-58.994-5.273-78.986-12.558v12.342c19.998,7.291,44.111,12.569,79.018,12.569
						c112.942,0,112.942-55.232,225.885-55.232c112.941,0,112.941,55.232,225.882,55.232c112.939,0,112.939-55.232,225.879-55.232
						c112.941,0,112.941,55.232,225.882,55.232c112.941,0,112.941-55.232,225.883-55.232s112.942,55.232,225.883,55.232
						c112.941,0,112.941-55.232,225.881-55.232c112.94,0,112.94,55.232,225.881,55.232c57.128,0,85.36-14.132,113.928-28.099
						V1662.206z"/>
				</g>
				<g>
					<path style="fill:#9FD4FF;" d="M2000,1688.507c-28.579,13.972-56.811,28.115-113.962,28.115
						c-112.941,0-112.941-55.232-225.882-55.232c-112.939,0-112.939,55.232-225.879,55.232
						c-112.941,0-112.941-55.232-225.882-55.232c-112.942,0-112.942,55.232-225.883,55.232s-112.941-55.232-225.883-55.232
						c-112.941,0-112.941,55.232-225.881,55.232s-112.941-55.232-225.881-55.232c-112.941,0-112.941,55.232-225.882,55.232
						c-34.889,0-58.994-5.273-78.986-12.558v11.545c19.998,7.291,44.111,12.569,79.018,12.569
						c112.942,0,112.942-55.232,225.885-55.232c112.941,0,112.941,55.232,225.882,55.232c112.939,0,112.939-55.232,225.879-55.232
						c112.941,0,112.941,55.232,225.882,55.232c112.941,0,112.941-55.232,225.883-55.232s112.942,55.232,225.883,55.232
						c112.941,0,112.941-55.232,225.881-55.232c112.94,0,112.94,55.232,225.881,55.232c57.128,0,85.36-14.132,113.928-28.099
						V1688.507z"/>
				</g>
				<g>
					<path style="fill:#9FD4FF;" d="M2000,1714.808c-28.579,13.972-56.811,28.115-113.962,28.115
						c-112.941,0-112.941-55.232-225.882-55.232c-112.939,0-112.939,55.232-225.879,55.232
						c-112.941,0-112.941-55.232-225.882-55.232c-112.942,0-112.942,55.232-225.883,55.232s-112.941-55.232-225.883-55.232
						c-112.941,0-112.941,55.232-225.881,55.232s-112.941-55.232-225.881-55.232c-112.941,0-112.941,55.232-225.882,55.232
						c-34.889,0-58.994-5.273-78.986-12.558v10.748c19.998,7.291,44.111,12.569,79.018,12.569
						c112.942,0,112.942-55.232,225.885-55.232c112.941,0,112.941,55.232,225.882,55.232c112.939,0,112.939-55.232,225.879-55.232
						c112.941,0,112.941,55.232,225.882,55.232c112.941,0,112.941-55.232,225.883-55.232c112.942,0,112.942,55.232,225.883,55.232
						c112.941,0,112.941-55.232,225.881-55.232c112.94,0,112.94,55.232,225.881,55.232c57.128,0,85.36-14.132,113.928-28.099
						V1714.808z"/>
				</g>
				<g>
					<path style="fill:#9FD4FF;" d="M2000,1741.109c-28.579,13.972-56.811,28.115-113.962,28.115
						c-112.941,0-112.941-55.232-225.882-55.232c-112.939,0-112.939,55.232-225.879,55.232
						c-112.941,0-112.941-55.232-225.882-55.232c-112.942,0-112.942,55.232-225.883,55.232s-112.941-55.232-225.883-55.232
						c-112.941,0-112.941,55.232-225.881,55.232s-112.941-55.232-225.881-55.232c-112.941,0-112.941,55.232-225.882,55.232
						c-34.889,0-58.994-5.273-78.986-12.558v9.951c19.998,7.291,44.111,12.569,79.018,12.569
						c112.942,0,112.942-55.232,225.885-55.232c112.941,0,112.941,55.232,225.882,55.232c112.939,0,112.939-55.232,225.879-55.232
						c112.941,0,112.941,55.232,225.882,55.232c112.941,0,112.941-55.232,225.883-55.232s112.942,55.232,225.883,55.232
						c112.941,0,112.941-55.232,225.881-55.232c112.94,0,112.94,55.232,225.881,55.232c57.128,0,85.36-14.131,113.928-28.099
						V1741.109z"/>
				</g>
				<g>
					<path style="fill:#9FD4FF;" d="M2000,1767.411c-28.579,13.973-56.811,28.115-113.962,28.115
						c-112.941,0-112.941-55.232-225.882-55.232c-112.939,0-112.939,55.232-225.879,55.232
						c-112.941,0-112.941-55.232-225.882-55.232c-112.942,0-112.942,55.232-225.883,55.232s-112.941-55.232-225.883-55.232
						c-112.941,0-112.941,55.232-225.881,55.232s-112.941-55.232-225.881-55.232c-112.941,0-112.941,55.232-225.882,55.232
						c-34.889,0-58.994-5.273-78.986-12.558v9.154c19.998,7.291,44.111,12.57,79.018,12.57c112.942,0,112.942-55.232,225.885-55.232
						c112.941,0,112.941,55.232,225.882,55.232c112.939,0,112.939-55.232,225.879-55.232c112.941,0,112.941,55.232,225.882,55.232
						c112.941,0,112.941-55.232,225.883-55.232s112.942,55.232,225.883,55.232c112.941,0,112.941-55.232,225.881-55.232
						c112.94,0,112.94,55.232,225.881,55.232c57.128,0,85.36-14.132,113.928-28.099V1767.411z"/>
				</g>
				<g>
					<path style="fill:#9FD4FF;" d="M2000,1793.712c-28.579,13.973-56.811,28.115-113.962,28.115
						c-112.941,0-112.941-55.233-225.882-55.233c-112.939,0-112.939,55.233-225.879,55.233
						c-112.941,0-112.941-55.233-225.882-55.233c-112.942,0-112.942,55.233-225.883,55.233s-112.941-55.233-225.883-55.233
						c-112.941,0-112.941,55.233-225.881,55.233s-112.941-55.233-225.881-55.233c-112.941,0-112.941,55.233-225.882,55.233
						c-34.889,0-58.994-5.273-78.986-12.558v8.357c19.998,7.291,44.111,12.569,79.018,12.569
						c112.942,0,112.942-55.232,225.885-55.232c112.941,0,112.941,55.232,225.882,55.232c112.939,0,112.939-55.232,225.879-55.232
						c112.941,0,112.941,55.232,225.882,55.232c112.941,0,112.941-55.232,225.883-55.232c112.942,0,112.942,55.232,225.883,55.232
						c112.941,0,112.941-55.232,225.881-55.232c112.94,0,112.94,55.232,225.881,55.232c57.128,0,85.36-14.132,113.928-28.099
						V1793.712z"/>
				</g>
				<g>
					<path style="fill:#9FD4FF;" d="M2000,1820.013c-28.579,13.972-56.811,28.115-113.962,28.115
						c-112.941,0-112.941-55.232-225.882-55.232c-112.939,0-112.939,55.232-225.879,55.232
						c-112.941,0-112.941-55.232-225.882-55.232c-112.942,0-112.942,55.232-225.883,55.232s-112.941-55.232-225.883-55.232
						c-112.941,0-112.941,55.232-225.881,55.232s-112.941-55.232-225.881-55.232c-112.941,0-112.941,55.232-225.882,55.232
						c-34.889,0-58.994-5.273-78.986-12.558v7.56c19.998,7.291,44.111,12.569,79.018,12.569
						c112.942,0,112.942-55.232,225.885-55.232c112.941,0,112.941,55.232,225.882,55.232c112.939,0,112.939-55.232,225.879-55.232
						c112.941,0,112.941,55.232,225.882,55.232c112.941,0,112.941-55.232,225.883-55.232s112.942,55.232,225.883,55.232
						c112.941,0,112.941-55.232,225.881-55.232c112.94,0,112.94,55.232,225.881,55.232c57.128,0,85.36-14.131,113.928-28.099
						V1820.013z"/>
				</g>
				<g>
					<path style="fill:#9FD4FF;" d="M2000,1846.314c-28.579,13.973-56.811,28.115-113.962,28.115
						c-112.941,0-112.941-55.232-225.882-55.232c-112.939,0-112.939,55.232-225.879,55.232
						c-112.941,0-112.941-55.232-225.882-55.232c-112.942,0-112.942,55.232-225.883,55.232s-112.941-55.232-225.883-55.232
						c-112.941,0-112.941,55.232-225.881,55.232s-112.941-55.232-225.881-55.232c-112.941,0-112.941,55.232-225.882,55.232
						c-34.889,0-58.994-5.273-78.986-12.558v6.763c19.998,7.291,44.111,12.569,79.018,12.569
						c112.942,0,112.942-55.232,225.885-55.232c112.941,0,112.941,55.232,225.882,55.232c112.939,0,112.939-55.232,225.879-55.232
						c112.941,0,112.941,55.232,225.882,55.232c112.941,0,112.941-55.232,225.883-55.232s112.942,55.232,225.883,55.232
						c112.941,0,112.941-55.232,225.881-55.232c112.94,0,112.94,55.232,225.881,55.232c57.128,0,85.36-14.132,113.928-28.099
						V1846.314z"/>
				</g>
				<g>
					<path style="fill:#9FD4FF;" d="M2000,1872.615c-28.579,13.973-56.811,28.115-113.962,28.115
						c-112.941,0-112.941-55.233-225.882-55.233c-112.939,0-112.939,55.233-225.879,55.233
						c-112.941,0-112.941-55.233-225.882-55.233c-112.942,0-112.942,55.233-225.883,55.233s-112.941-55.233-225.883-55.233
						c-112.941,0-112.941,55.233-225.881,55.233s-112.941-55.233-225.881-55.233c-112.941,0-112.941,55.233-225.882,55.233
						c-34.889,0-58.994-5.273-78.986-12.558v5.966c19.998,7.291,44.111,12.569,79.018,12.569
						c112.942,0,112.942-55.232,225.885-55.232c112.941,0,112.941,55.232,225.882,55.232c112.939,0,112.939-55.232,225.879-55.232
						c112.941,0,112.941,55.232,225.882,55.232c112.941,0,112.941-55.232,225.883-55.232s112.942,55.232,225.883,55.232
						c112.941,0,112.941-55.232,225.881-55.232c112.94,0,112.94,55.232,225.881,55.232c57.128,0,85.36-14.132,113.928-28.099
						V1872.615z"/>
				</g>
				<g>
					<path style="fill:#9FD4FF;" d="M2000,1898.916c-28.579,13.973-56.811,28.115-113.962,28.115
						c-112.941,0-112.941-55.232-225.882-55.232c-112.939,0-112.939,55.232-225.879,55.232
						c-112.941,0-112.941-55.232-225.882-55.232c-112.942,0-112.942,55.232-225.883,55.232s-112.941-55.232-225.883-55.232
						c-112.941,0-112.941,55.232-225.881,55.232s-112.941-55.232-225.881-55.232c-112.941,0-112.941,55.232-225.882,55.232
						c-34.889,0-58.994-5.273-78.986-12.558v5.169c19.998,7.291,44.111,12.57,79.018,12.57c112.942,0,112.942-55.232,225.885-55.232
						c112.941,0,112.941,55.232,225.882,55.232c112.939,0,112.939-55.232,225.879-55.232c112.941,0,112.941,55.232,225.882,55.232
						c112.941,0,112.941-55.232,225.883-55.232s112.942,55.232,225.883,55.232c112.941,0,112.941-55.232,225.881-55.232
						c112.94,0,112.94,55.232,225.881,55.232c57.128,0,85.36-14.132,113.928-28.099V1898.916z"/>
				</g>
				<g>
					<path style="fill:#9FD4FF;" d="M2000,1925.217c-28.579,13.973-56.811,28.115-113.962,28.115
						c-112.941,0-112.941-55.232-225.882-55.232c-112.939,0-112.939,55.232-225.879,55.232
						c-112.941,0-112.941-55.232-225.882-55.232c-112.942,0-112.942,55.232-225.883,55.232S869.571,1898.1,756.63,1898.1
						c-112.941,0-112.941,55.232-225.881,55.232S417.808,1898.1,304.868,1898.1c-112.941,0-112.941,55.232-225.882,55.232
						c-34.889,0-58.994-5.273-78.986-12.558v4.372c19.998,7.291,44.111,12.569,79.018,12.569
						c112.942,0,112.942-55.232,225.885-55.232c112.941,0,112.941,55.232,225.882,55.232c112.939,0,112.939-55.232,225.879-55.232
						c112.941,0,112.941,55.232,225.882,55.232c112.941,0,112.941-55.232,225.883-55.232s112.942,55.232,225.883,55.232
						c112.941,0,112.941-55.232,225.881-55.232c112.94,0,112.94,55.232,225.881,55.232c57.128,0,85.36-14.132,113.928-28.099
						V1925.217z"/>
				</g>
			</g>
		</g>
		<g>
			<g>
				<path style="fill:#FFFFFF;" d="M2000,2000v-126.757c-22.02-9.255-48.117-16.516-89.062-16.516
					c-112.943,0-112.943,55.232-225.885,55.232c-112.941,0-112.941-55.232-225.882-55.232c-112.939,0-112.939,55.232-225.879,55.232
					c-112.941,0-112.941-55.232-225.881-55.232c-112.942,0-112.942,55.232-225.883,55.232c-112.942,0-112.942-55.232-225.883-55.232
					c-112.941,0-112.941,55.232-225.881,55.232c-112.941,0-112.941-55.232-225.881-55.232c-50.456,0-78.369,11.024-103.883,23.222
					V2000H2000z"/>
			</g>
			<g>
				<g>
					<path style="fill:#9FD4FF;" d="M2000,1886.394c-22.02-9.255-48.117-16.516-89.062-16.516
						c-112.942,0-112.942,55.232-225.885,55.232c-112.941,0-112.941-55.232-225.882-55.232
						c-112.939,0-112.939,55.232-225.879,55.232c-112.941,0-112.941-55.232-225.881-55.232
						c-112.942,0-112.942,55.232-225.883,55.232c-112.942,0-112.942-55.232-225.883-55.232
						c-112.941,0-112.941,55.232-225.881,55.232c-112.941,0-112.941-55.232-225.881-55.232c-50.456,0-78.369,11.025-103.883,23.222
						v13.167c25.524-12.204,53.439-23.238,103.918-23.238c112.941,0,112.941,55.232,225.881,55.232
						c112.94,0,112.94-55.232,225.879-55.232c112.941,0,112.941,55.232,225.882,55.232c112.942,0,112.942-55.232,225.883-55.232
						s112.941,55.232,225.883,55.232c112.941,0,112.941-55.232,225.881-55.232c112.94,0,112.941,55.232,225.881,55.232
						c112.941,0,112.941-55.232,225.881-55.232c40.925,0,67.018,7.254,89.031,16.503V1886.394z"/>
				</g>
				<g>
					<path style="fill:#9FD4FF;" d="M2000,1912.695c-22.02-9.255-48.117-16.516-89.062-16.516
						c-112.942,0-112.942,55.233-225.885,55.233c-112.941,0-112.941-55.233-225.882-55.233
						c-112.939,0-112.939,55.233-225.879,55.233c-112.941,0-112.941-55.233-225.881-55.233
						c-112.942,0-112.942,55.233-225.883,55.233c-112.942,0-112.942-55.233-225.883-55.233
						c-112.941,0-112.941,55.233-225.881,55.233c-112.941,0-112.941-55.233-225.881-55.233c-50.456,0-78.369,11.025-103.883,23.222
						v12.369c25.524-12.204,53.439-23.238,103.918-23.238c112.941,0,112.941,55.233,225.881,55.233
						c112.94,0,112.94-55.233,225.879-55.233c112.941,0,112.941,55.233,225.882,55.233c112.942,0,112.942-55.233,225.883-55.233
						s112.941,55.233,225.883,55.233c112.941,0,112.941-55.233,225.881-55.233c112.94,0,112.941,55.233,225.881,55.233
						c112.941,0,112.941-55.233,225.881-55.233c40.925,0,67.018,7.254,89.031,16.503V1912.695z"/>
				</g>
				<g>
					<path style="fill:#9FD4FF;" d="M2000,1938.996c-22.02-9.255-48.117-16.516-89.062-16.516
						c-112.942,0-112.942,55.232-225.885,55.232c-112.941,0-112.941-55.232-225.882-55.232
						c-112.939,0-112.939,55.232-225.879,55.232c-112.941,0-112.941-55.232-225.881-55.232
						c-112.942,0-112.942,55.232-225.883,55.232c-112.942,0-112.942-55.232-225.883-55.232
						c-112.941,0-112.941,55.232-225.881,55.232c-112.941,0-112.941-55.232-225.881-55.232c-50.456,0-78.369,11.025-103.883,23.223
						v11.572c25.524-12.204,53.439-23.238,103.918-23.238c112.941,0,112.941,55.232,225.881,55.232
						c112.94,0,112.94-55.232,225.879-55.232c112.941,0,112.941,55.232,225.882,55.232c112.942,0,112.942-55.232,225.883-55.232
						s112.941,55.232,225.883,55.232c112.941,0,112.941-55.232,225.881-55.232c112.94,0,112.941,55.232,225.881,55.232
						c112.941,0,112.941-55.232,225.881-55.232c40.925,0,67.018,7.254,89.031,16.503V1938.996z"/>
				</g>
				<g>
					<path style="fill:#9FD4FF;" d="M1769.886,2000c41.149-16.361,66.478-40.459,141.083-40.459
						c40.925,0,67.018,7.254,89.031,16.503v-10.746c-22.02-9.255-48.117-16.516-89.062-16.516
						c-94.327,0-109.888,38.519-178.245,51.219H1769.886z"/>
					<path style="fill:#9FD4FF;" d="M245.001,2000h37.124c-68.356-12.7-83.917-51.219-178.242-51.219
						c-50.456,0-78.369,11.025-103.883,23.222v10.776c25.524-12.204,53.439-23.238,103.918-23.238
						C178.523,1959.541,203.852,1983.639,245.001,2000z"/>
					<path style="fill:#9FD4FF;" d="M1318.124,2000c41.149-16.361,66.478-40.459,141.083-40.459s99.933,24.098,141.083,40.459
						h37.124c-68.356-12.7-83.917-51.219-178.242-51.219c-94.324,0-109.885,38.519-178.24,51.219H1318.124z"/>
					<path style="fill:#9FD4FF;" d="M866.359,2000c41.15-16.361,66.479-40.459,141.084-40.459s99.935,24.098,141.084,40.459h37.127
						c-68.356-12.7-83.917-51.219-178.242-51.219c-94.326,0-109.887,38.519-178.243,51.219H866.359z"/>
					<path style="fill:#9FD4FF;" d="M414.597,2000c41.149-16.361,66.477-40.459,141.081-40.459
						c74.605,0,99.934,24.098,141.083,40.459h37.128c-68.356-12.7-83.917-51.219-178.243-51.219
						c-94.325,0-109.886,38.519-178.242,51.219H414.597z"/>
				</g>
				<g>
					<path style="fill:#9FD4FF;" d="M1373.948,2000c21.237-8.498,46.646-14.955,85.259-14.955s64.022,6.457,85.259,14.955h22.111
						c-26.505-12.852-54.62-24.917-107.406-24.917c-52.785,0-80.899,12.065-107.404,24.917H1373.948z"/>
					<path style="fill:#9FD4FF;" d="M922.183,2000c21.237-8.498,46.646-14.955,85.26-14.955s64.023,6.457,85.26,14.955h22.114
						c-26.505-12.852-54.62-24.917-107.406-24.917c-52.786,0-80.901,12.065-107.406,24.917H922.183z"/>
					<path style="fill:#9FD4FF;" d="M1825.71,2000c21.237-8.498,46.646-14.955,85.259-14.955c38.609,0,64.013,6.458,85.249,14.955
						H2000v-8.402c-22.02-9.255-48.117-16.516-89.062-16.516c-52.787,0-80.901,12.065-107.407,24.917H1825.71z"/>
					<path style="fill:#9FD4FF;" d="M18.667,2000c21.236-8.497,46.64-14.955,85.251-14.955c38.613,0,64.022,6.457,85.259,14.955
						h22.111c-26.505-12.852-54.619-24.917-107.405-24.917c-50.456,0-78.369,11.025-103.883,23.222V2000H18.667z"/>
					<path style="fill:#9FD4FF;" d="M470.42,2000c21.237-8.498,46.646-14.955,85.258-14.955c38.613,0,64.022,6.457,85.26,14.955
						h22.114c-26.505-12.852-54.62-24.917-107.406-24.917c-52.786,0-80.9,12.065-107.406,24.917H470.42z"/>
				</g>
			</g>
		</g>
	</g>
</g>
</svg>
